<svg xmlns="http://www.w3.org/2000/svg" width="19.118" height="19.119" viewBox="0 0 19.118 19.119">
  <g id="Group_41542" data-name="Group 41542" transform="translate(-1919.353 -299.457)">
    <path id="Path_78459" data-name="Path 78459" d="M1926.294,315.035h-5.846a1.048,1.048,0,0,1-1.095-1.1q0-5.941,0-11.881a1.074,1.074,0,0,1,1.176-1.184h1.294v10.6h.716V300.672a1.081,1.081,0,0,1,1.212-1.214h7.285v.246q0,1.759,0,3.518c0,.375.111.485.489.485h3.751v7.771h.717v-.228q0-3.75,0-7.5a1.9,1.9,0,0,0-.588-1.428c-.473-.464-.94-.935-1.438-1.431.1-.007.158-.015.219-.016q1.571,0,3.142,0a1.066,1.066,0,0,1,1.141,1.152q0,5.974,0,11.948a1.045,1.045,0,0,1-1.064,1.061h-5.876c.114.344.22.668.328.992.14.418.14.418.574.424a1.061,1.061,0,1,1,.013,2.122q-3.529.006-7.058,0a1.061,1.061,0,1,1-.006-2.122c.445-.008.445-.008.588-.436C1926.077,315.7,1926.182,315.376,1926.294,315.035Zm11.468-2.817h-17.7c0,.523,0,1.031,0,1.539,0,.471.1.57.568.57H1937.2c.066,0,.133,0,.2,0a.362.362,0,0,0,.363-.371C1937.768,313.38,1937.762,312.806,1937.762,312.218Zm-6.513,4.228c-.142-.428-.282-.831-.406-1.238a.215.215,0,0,0-.25-.176c-.988.006-1.976,0-2.964,0-.584,0-.584,0-.769.552-.094.281-.186.563-.284.859Zm-2.353,1.421h3.385c.059,0,.118,0,.177,0a.352.352,0,0,0,.009-.7c-.051-.005-.1,0-.155,0h-6.793a1.006,1.006,0,0,0-.2.006.351.351,0,0,0-.009.693,1.051,1.051,0,0,0,.22.008Zm-2.351-8.847c.179-.165.319-.285.448-.415a.359.359,0,1,0-.5-.5c-.135.133-.262.273-.417.435-.157-.168-.283-.311-.42-.444a.358.358,0,1,0-.5.505c.133.136.273.264.4.386-.016.045-.017.062-.026.071-.118.121-.239.24-.357.362-.191.2-.209.409-.048.562a.362.362,0,0,0,.545-.055c.131-.136.241-.292.379-.463.2.208.321.353.459.486a.356.356,0,1,0,.5-.5C1926.872,309.306,1926.725,309.184,1926.545,309.02Zm4.123-2.482h1.681c.293,0,.461-.135.455-.362s-.166-.345-.449-.346h-3.341c-.294,0-.46.134-.455.361s.166.345.449.346C1929.562,306.539,1930.115,306.538,1930.668,306.538Zm.015,3.54c.56,0,1.121,0,1.681,0,.278,0,.441-.134.441-.354s-.162-.353-.441-.353q-1.681,0-3.363,0c-.279,0-.441.133-.44.354s.162.353.441.353C1929.562,310.08,1930.122,310.079,1930.683,310.079Zm-4.973-4.388c-.161-.169-.3-.326-.446-.466a.352.352,0,0,0-.5.5q.341.362.7.7a.333.333,0,0,0,.5.012q.728-.709,1.437-1.438a.334.334,0,0,0-.009-.479.351.351,0,0,0-.5-.009c-.056.047-.106.1-.158.154Zm4.464-1.277c-.4,0-.8,0-1.195,0-.262,0-.419.137-.419.353s.158.353.418.354q1.173,0,2.345,0c.26,0,.419-.139.419-.353s-.158-.352-.419-.353C1930.941,304.412,1930.557,304.414,1930.174,304.414Zm-.04,4.248c.4,0,.8,0,1.195,0,.258,0,.417-.143.415-.358s-.161-.348-.423-.349q-1.173,0-2.345,0c-.259,0-.417.142-.414.357s.16.348.423.349C1929.366,308.664,1929.75,308.662,1930.133,308.662Z" fill="#fff"/>
    <path id="Path_78460" data-name="Path 78460" d="M2129.122,307.748v-3.221l3.211,3.221Z" transform="translate(-197.367 -4.77)" fill="#fff"/>
  </g>
</svg>
