<svg xmlns="http://www.w3.org/2000/svg" width="19.119" height="15.395" viewBox="0 0 19.119 15.395">
  <g id="Group_41541" data-name="Group 41541" transform="translate(-1683.375 -791.869)">
    <path id="Path_78454" data-name="Path 78454" d="M1702.494,792.7v12.659a1.092,1.092,0,0,1-1.267.852h-3.174c0-.436.028-.842-.009-1.243a.712.712,0,0,1,.362-.66c.354.354.7.7,1.046,1.051a.379.379,0,0,0,.449.132c.172-.074.2-.229.2-.4,0-.983-.016-1.967,0-2.95a5.917,5.917,0,0,1,.14-2.044c.047-.126.088-.2.228-.224a.849.849,0,0,0,.749-1.1.241.241,0,0,1,.124-.309.847.847,0,0,0,.26-1.307.237.237,0,0,1,0-.331.848.848,0,0,0-.268-1.306.232.232,0,0,1-.122-.292.847.847,0,0,0-.734-1.112.241.241,0,0,1-.238-.234.849.849,0,0,0-1.091-.745.249.249,0,0,1-.323-.128.847.847,0,0,0-1.294-.259.239.239,0,0,1-.332.007.849.849,0,0,0-1.308.258.24.24,0,0,1-.308.125.844.844,0,0,0-1.1.73.255.255,0,0,1-.248.248.845.845,0,0,0-.729,1.1.241.241,0,0,1-.127.308.847.847,0,0,0-.267,1.293.247.247,0,0,1,0,.347.846.846,0,0,0,.26,1.294.25.25,0,0,1,.127.324.859.859,0,0,0,.746,1.095c.068.01.17.046.186.093a2.381,2.381,0,0,1,.188.709c.016,1.773.009,3.547.009,5.32v.2c-.069.005-.112.011-.154.011q-5.022,0-10.044,0a1.024,1.024,0,0,1-1.072-1.087q0-6.086,0-12.172a1.014,1.014,0,0,1,1.074-1.078q8.485,0,16.969,0a1.3,1.3,0,0,1,.313.034A1.072,1.072,0,0,1,1702.494,792.7Zm-17.751,6.342c0,1.089,0,2.178,0,3.266a2.418,2.418,0,0,0,.035.482,1.7,1.7,0,0,0,1.737,1.369q3.136,0,6.272,0c.323,0,.479-.109.484-.336s-.15-.345-.488-.345q-3.117,0-6.234,0a1.031,1.031,0,0,1-1.124-1.127q0-3.313,0-6.626a1.024,1.024,0,0,1,1.122-1.123h5.9a.866.866,0,0,0,.257-.027.313.313,0,0,0,.228-.344.327.327,0,0,0-.3-.3,1.321,1.321,0,0,0-.149,0q-2.977,0-5.954,0a2.049,2.049,0,0,0-.426.035,1.688,1.688,0,0,0-1.356,1.725C1684.739,796.8,1684.743,797.919,1684.743,799.039Zm3.279,2.914c.744.592.982.635,1.527.294a6.413,6.413,0,0,0,2.317.456.35.35,0,0,0,.388-.34.342.342,0,0,0-.386-.336,6.408,6.408,0,0,1-1.74-.29.523.523,0,0,1-.366-.29.313.313,0,0,0-.366-.192.327.327,0,0,0-.277.308c-.029.223-.114.26-.311.137a1.391,1.391,0,0,1-.559-.679c-.089-.22-.223-.3-.408-.268s-.27.16-.277.387a.84.84,0,0,1-.383.708c-.143.1-.3.17-.452.258a.74.74,0,0,0-.21.145.3.3,0,0,0,0,.4.329.329,0,0,0,.416.109A2.231,2.231,0,0,0,1688.022,801.953Zm1.161-5.3q1.128,0,2.256,0a.858.858,0,0,0,.221-.022.335.335,0,0,0-.017-.649.85.85,0,0,0-.185-.017h-4.568a.759.759,0,0,0-.184.019.315.315,0,0,0-.255.325.308.308,0,0,0,.237.319.91.91,0,0,0,.239.025Q1688.055,796.65,1689.183,796.649Zm-.015,1.358h.093c.752,0,1.5,0,2.256,0,.27,0,.427-.172.38-.405a.344.344,0,0,0-.388-.272q-1.333,0-2.666,0c-.665,0-1.33,0-1.995,0a.366.366,0,0,0-.36.185.336.336,0,0,0,.33.494C1687.6,798.009,1688.386,798.006,1689.169,798.007Zm.011.69h-2.163c-.087,0-.174,0-.261,0a.334.334,0,0,0-.064.654.736.736,0,0,0,.2.022q2.284,0,4.568,0a.653.653,0,0,0,.237-.034.334.334,0,0,0-.077-.639,1.252,1.252,0,0,0-.186-.007Z" transform="translate(0 0)" fill="#fff"/>
    <path id="Path_78455" data-name="Path 78455" d="M1890.42,819.713c.032.009.073.022.115.032a.87.87,0,0,0,.977-.407c.128-.207.182-.218.38-.075a.859.859,0,0,0,1.057,0c.2-.145.258-.134.381.069a.868.868,0,0,0,.993.408c.222-.053.276-.017.31.209a.874.874,0,0,0,.758.761c.237.042.266.087.209.325a.862.862,0,0,0,.407.976c.2.124.214.19.074.382a.858.858,0,0,0,0,1.057c.14.193.127.259-.074.381a.866.866,0,0,0-.407.976c.057.244.026.289-.226.328a.875.875,0,0,0-.742.756c-.032.225-.09.265-.307.213a.865.865,0,0,0-1,.419c-.108.179-.186.194-.357.069a.86.86,0,0,0-1.087,0c-.171.126-.249.111-.358-.067a.865.865,0,0,0-1.02-.416c-.194.048-.252.009-.287-.2a.867.867,0,0,0-.8-.783c-.181-.027-.229-.1-.186-.285a.858.858,0,0,0-.428-1.03c-.161-.1-.177-.178-.067-.333a.859.859,0,0,0,0-1.116c-.117-.163-.1-.233.075-.342a.863.863,0,0,0,.418-1.02c-.046-.2-.005-.255.2-.29a.866.866,0,0,0,.785-.8C1890.234,819.8,1890.277,819.719,1890.42,819.713Zm2,.482a2.729,2.729,0,1,0,2.735,2.723A2.716,2.716,0,0,0,1892.417,820.194Z" transform="translate(-195.048 -25.935)" fill="#fff"/>
    <path id="Path_78456" data-name="Path 78456" d="M1924.878,976.093c0,.553.012,1.086-.01,1.617a.4.4,0,0,1-.223.28.5.5,0,0,1-.337-.064c-.08-.036-.133-.127-.2-.189a.335.335,0,0,0-.5,0c-.07.062-.123.155-.2.189a.536.536,0,0,1-.355.059c-.1-.04-.148-.188-.214-.292-.014-.022,0-.061,0-.092v-5.967l.064-.019a.462.462,0,0,1,.633.248.785.785,0,0,0,.671.311v.224q0,1.726,0,3.451c0,.3.2.472.444.388A1.376,1.376,0,0,0,1924.878,976.093Z" transform="translate(-227.506 -170.737)" fill="#fff"/>
    <path id="Path_78457" data-name="Path 78457" d="M1966.314,971.44v3.45c-.118-.114-.218-.209-.316-.305-.142-.14-.28-.283-.423-.422a.35.35,0,0,0-.554,0c-.239.234-.473.473-.734.734v-3.2c.073.046.134.082.191.122a.845.845,0,0,0,1.233-.247c.1-.174.208-.229.392-.159A1.1,1.1,0,0,0,1966.314,971.44Z" transform="translate(-266.899 -170.551)" fill="#fff"/>
    <path id="Path_78458" data-name="Path 78458" d="M1922.923,855.451a2.049,2.049,0,1,1,2.048,2.041A2.052,2.052,0,0,1,1922.923,855.451Z" transform="translate(-227.597 -58.456)" fill="#fff"/>
  </g>
</svg>
