<svg xmlns="http://www.w3.org/2000/svg" width="34.394" height="34.394" viewBox="0 0 34.394 34.394">
  <g id="Group_41566" data-name="Group 41566" transform="translate(-908.751 -361.251)">
    <circle id="Ellipse_6" data-name="Ellipse 6" cx="14.5" cy="14.5" r="14.5" transform="translate(911 365)" fill="#fff"/>
    <path id="Icon_awesome-check-circle" data-name="Icon awesome-check-circle" d="M34.956,17.759a17.2,17.2,0,1,1-17.2-17.2A17.2,17.2,0,0,1,34.956,17.759ZM15.77,26.865,28.529,14.106a1.109,1.109,0,0,0,0-1.569L26.96,10.968a1.109,1.109,0,0,0-1.569,0L14.986,21.373l-4.858-4.858a1.11,1.11,0,0,0-1.569,0L6.99,18.084a1.109,1.109,0,0,0,0,1.569L14.2,26.865a1.11,1.11,0,0,0,1.569,0Z" transform="translate(908.188 360.688)" fill="#02bb1b"/>
  </g>
</svg>
