<svg xmlns="http://www.w3.org/2000/svg" width="22.772" height="22.848" viewBox="0 0 22.772 22.848">
  <g id="Group_41534" data-name="Group 41534" transform="translate(-891.132 -485.285)">
    <path id="Path_78412" data-name="Path 78412" d="M899.6,498.5c.163,0,.3,0,.431,0a2.281,2.281,0,0,0,1.8-.73,1.247,1.247,0,0,1,1.043-.42c1.73.025,3.46.013,5.19.006.2,0,.267.052.264.262-.012.925-.005,1.85-.005,2.775v.2c-.354.065-.685.1-1,.189a3.481,3.481,0,0,0-1.588.99.5.5,0,0,1-.319.148q-7.029.011-14.057.006c-.066,0-.133-.007-.227-.013v-.251q0-4.005,0-8.01c0-.62.276-.9.89-.9.843,0,1.685,0,2.527,0h.227a2.407,2.407,0,0,0,1.5,2.472,6.315,6.315,0,0,0-1.009.149,2.573,2.573,0,0,0-1.854,2.242c-.151.957-.318,1.912-.479,2.867a.75.75,0,0,0,.743.915q2.583.009,5.167,0a.732.732,0,0,0,.756-.758c.009-.624,0-1.249,0-1.873Z" transform="translate(0 -4.957)" fill="#fff"/>
    <path id="Path_78413" data-name="Path 78413" d="M920.935,491.641c.376-1,.273-1.7-.379-2.168-.938-.675-1.748-.356-2.5.462v-.257q0-1.771,0-3.543a.752.752,0,0,1,.844-.85q4.05,0,8.1,0a.759.759,0,0,1,.843.834q0,2.347,0,4.693a.761.761,0,0,1-.8.835q-3.012.005-6.024,0C921,491.65,920.974,491.645,920.935,491.641Zm2.344-4.244h1.892a1.334,1.334,0,0,0,.246-.016.369.369,0,0,0,.312-.382.377.377,0,0,0-.347-.353,1.049,1.049,0,0,0-.112,0h-3.943a.716.716,0,0,0-.135.006.356.356,0,0,0-.319.354.341.341,0,0,0,.268.369,1.046,1.046,0,0,0,.267.027C922.032,487.4,922.656,487.4,923.279,487.4Zm.32,1.447c.571,0,1.142,0,1.714,0a.385.385,0,0,0,.417-.38.371.371,0,0,0-.377-.37q-1.747-.007-3.495,0a.359.359,0,0,0-.368.352.371.371,0,0,0,.328.392,1.269,1.269,0,0,0,.2.008Zm.825.69c-.3,0-.6,0-.9,0a.38.38,0,1,0,0,.756q.888.009,1.776,0a.381.381,0,1,0,0-.757C925.009,489.532,924.716,489.535,924.424,489.535Z" transform="translate(-17.891 0)" fill="#fff"/>
    <path id="Path_78414" data-name="Path 78414" d="M905.137,522.362a3.572,3.572,0,0,0,.055,2.985H892.047c-.646,0-.914-.271-.915-.921q0-.9,0-1.805v-.259Zm-5.4,1.108h-.473c-.015,0-.03,0-.045,0a.387.387,0,0,0-.388.363.375.375,0,0,0,.381.391c.345.011.692.012,1.037,0a.376.376,0,0,0,.366-.383.382.382,0,0,0-.382-.368C900.07,523.463,899.9,523.47,899.739,523.47Z" transform="translate(0 -24.637)" fill="#fff"/>
    <path id="Path_78415" data-name="Path 78415" d="M931.286,544.446q-2.379,0-4.758,0a.749.749,0,0,1-.714-1.158,6.137,6.137,0,0,1,10.924-.029.75.75,0,0,1-.716,1.181h-4.736Z" transform="translate(-22.966 -36.314)" fill="#fff"/>
    <path id="Path_78416" data-name="Path 78416" d="M903.88,501.868v2.878h-3.134c.122-.729.241-1.447.361-2.164.048-.284-.057-.479-.285-.525s-.4.112-.455.411c-.128.755-.258,1.509-.389,2.278H898.7c.094-.569.186-1.13.281-1.69.083-.488.159-.979.257-1.465a1.77,1.77,0,0,1,1.744-1.449c1.293-.016,2.587-.009,3.881,0a.551.551,0,0,0,.436-.177c.246-.253.505-.494.763-.736a.867.867,0,1,1,1.209,1.241c-.316.312-.639.615-.958.924a1.629,1.629,0,0,1-1.2.477C904.713,501.863,904.315,501.868,903.88,501.868Z" transform="translate(-5.029 -9.084)" fill="#fff"/>
    <path id="Path_78417" data-name="Path 78417" d="M936.956,518.5a2.732,2.732,0,1,1-2.737,2.713A2.722,2.722,0,0,1,936.956,518.5Z" transform="translate(-28.63 -22.072)" fill="#fff"/>
    <path id="Path_78418" data-name="Path 78418" d="M905.846,488.785a1.591,1.591,0,0,1,1.584,1.622,1.6,1.6,0,1,1-1.584-1.622Z" transform="translate(-8.704 -2.326)" fill="#fff"/>
    <path id="Path_78419" data-name="Path 78419" d="M912.172,533.529v1.738c.09,0,.169.012.248.012.391,0,.782-.006,1.173,0a.376.376,0,1,1-.016.749q-2.391,0-4.783,0c-.263,0-.417-.142-.42-.368a.37.37,0,0,1,.41-.381c.458-.008.915,0,1.4,0v-1.751Z" transform="translate(-11.458 -32.058)" fill="#fff"/>
    <path id="Path_78420" data-name="Path 78420" d="M912.815,497.244h-1.5a2.65,2.65,0,0,0,1.5-1.5v1.5Z" transform="translate(-13.409 -6.951)" fill="#fff"/>
  </g>
</svg>
