<svg xmlns="http://www.w3.org/2000/svg" width="41.241" height="41.241" viewBox="0 0 41.241 41.241">
  <g id="Group_41618" data-name="Group 41618" transform="translate(-612.638 -683.281)">
    <path id="Path_78472" data-name="Path 78472" d="M783.029,698.4c-.268,0-.493.005-.718,0a2.043,2.043,0,0,1-2.019-2q-.026-5.561,0-11.123a2.03,2.03,0,0,1,2.059-2c1.345-.015,2.691,0,4.037,0h13.528a2.1,2.1,0,0,1,2.36,2.351q0,5.239,0,10.479a2.09,2.09,0,0,1-2.293,2.29c-3.579,0-7.158,0-10.736-.007a1.173,1.173,0,0,0-.84.322c-1.359,1.185-2.735,2.351-4.1,3.527a.722.722,0,0,1-1.277-.592C783.034,700.584,783.029,699.514,783.029,698.4Zm4.813-7.571c0,1.086-.022,2.174.016,3.259a1.227,1.227,0,0,0,.345.761c.242.236.556.1.828-.072,1.731-1.085,3.466-2.162,5.2-3.248.657-.413.663-.955.012-1.365-1.728-1.089-3.462-2.169-5.193-3.253a.779.779,0,0,0-.844-.106.756.756,0,0,0-.362.765C787.844,688.659,787.841,689.746,787.841,690.832Z" transform="translate(-148.4 0)" fill="#185288"/>
    <path id="Path_78473" data-name="Path 78473" d="M630.534,695.263v2.743H616.367c-.788,0-.983.2-.983.989q0,9.319,0,18.638c0,.789.2.99.986.991h31.006c.794,0,1-.2,1-.98q0-3.371,0-6.742v-.5h2.73c.006.144.018.283.018.422q0,4.144,0,8.288a2.078,2.078,0,0,1-2.24,2.256q-17.006,0-34.012,0a2.074,2.074,0,0,1-2.233-2.22q0-10.844,0-21.687a2.06,2.06,0,0,1,2.113-2.208q7.795-.011,15.589,0C630.412,695.255,630.482,695.261,630.534,695.263Z" transform="translate(0 -10.599)" fill="#185288"/>
    <path id="Path_78474" data-name="Path 78474" d="M663.968,750.08c-.581-.223-.684-.354-.673-.951a20.267,20.267,0,0,1,.088-2.569,4.034,4.034,0,0,1,3.878-3.381,13.065,13.065,0,0,1,2.226.073,4.058,4.058,0,0,1,3.425,3.977c.011.63,0,1.26,0,1.89,0,.609-.093.74-.646.947-.046.516-.052,1.034-.146,1.535a3.648,3.648,0,0,1-1,1.911.831.831,0,0,0-.273.676c.02.428.005.857.005,1.355a4.312,4.312,0,0,1,4.077,1.782,3.728,3.728,0,0,1,.7,2.312H660.544a4.067,4.067,0,0,1,1.477-3.127,4.428,4.428,0,0,1,3.331-.958c0-.578,0-1.117-.005-1.656a.354.354,0,0,0-.108-.219,4.269,4.269,0,0,1-1.26-3.432C663.981,750.2,663.973,750.158,663.968,750.08Zm1.394-.046c0,.343-.017.628,0,.909a2.746,2.746,0,0,0,5.355.62,2.124,2.124,0,0,0-.685-2.682A8.625,8.625,0,0,1,665.362,750.034Zm1.328,4.562c.174.766-.313,1.607.542,2.1a1.66,1.66,0,0,0,1.788-.031c.809-.51.315-1.324.494-2.052A4.282,4.282,0,0,1,666.69,754.6Z" transform="translate(-42.408 -53.012)" fill="#185288"/>
    <path id="Path_78475" data-name="Path 78475" d="M744.608,994.834h-5.2c-.812,0-1.019-.191-.992-1.018a10.653,10.653,0,0,1,.175-2.169,4.022,4.022,0,0,1,3.848-2.993q2.147-.026,4.295,0a4.115,4.115,0,0,1,4.044,4.027c.01.429.005.859,0,1.288,0,.635-.24.864-.893.865Q747.25,994.836,744.608,994.834Z" transform="translate(-111.344 -270.313)" fill="#185288"/>
    <path id="Path_78476" data-name="Path 78476" d="M618.841,994.826q-2.641,0-5.283,0c-.646,0-.9-.234-.875-.879a11.856,11.856,0,0,1,.176-2.3,4.013,4.013,0,0,1,3.839-3c1.446-.019,2.892-.021,4.338,0a4.111,4.111,0,0,1,4.01,4.016c.01.444.007.888,0,1.331-.006.59-.245.83-.839.831Q621.526,994.83,618.841,994.826Z" transform="translate(-0.039 -270.305)" fill="#185288"/>
    <path id="Path_78477" data-name="Path 78477" d="M870.33,994.833q-2.62,0-5.239,0c-.672,0-.919-.229-.895-.9a11.619,11.619,0,0,1,.173-2.255,4.014,4.014,0,0,1,3.866-3.022q2.147-.025,4.294,0a4.111,4.111,0,0,1,4.027,4c.011.458.009.916,0,1.374-.007.559-.254.807-.819.808Q873.036,994.837,870.33,994.833Z" transform="translate(-222.686 -270.312)" fill="#185288"/>
    <path id="Path_78478" data-name="Path 78478" d="M894.647,939.7h-6.6a3.892,3.892,0,0,1,1.059-4.052,3.441,3.441,0,0,1,4.107-.253A3.807,3.807,0,0,1,894.647,939.7Z" transform="translate(-243.647 -222.681)" fill="#185288"/>
    <path id="Path_78479" data-name="Path 78479" d="M768.864,939.689h-6.6a3.839,3.839,0,0,1,1.182-4.137,3.421,3.421,0,0,1,4.111-.09A3.833,3.833,0,0,1,768.864,939.689Z" transform="translate(-132.31 -222.67)" fill="#185288"/>
    <path id="Path_78480" data-name="Path 78480" d="M643.13,939.643H636.5a3.813,3.813,0,0,1,1.278-4.135,3.426,3.426,0,0,1,4.077,0A3.806,3.806,0,0,1,643.13,939.643Z" transform="translate(-20.989 -222.682)" fill="#185288"/>
  </g>
</svg>
