<svg xmlns="http://www.w3.org/2000/svg" width="18.393" height="15.101" viewBox="0 0 18.393 15.101">
  <g id="Group_41537" data-name="Group 41537" transform="translate(-459.409 -328.898)">
    <path id="Path_78434" data-name="Path 78434" d="M465.982,392.836h5.442a1,1,0,0,1,1.114,1.115c0,2.538-.011,5.077.007,7.615a1.064,1.064,0,0,1-1.136,1.126c-1.987-.023-3.974-.006-5.961-.012a.9.9,0,0,0-.537.161c-.848.575-1.7,1.14-2.556,1.708-.265.176-.382.127-.418-.18-.051-.433-.1-.866-.141-1.3-.029-.282-.135-.385-.419-.386-.321,0-.641,0-.961,0a.977.977,0,0,1-1-.995q-.005-3.923,0-7.846a.981.981,0,0,1,1.032-1.006Q463.213,392.833,465.982,392.836Zm4.689,6.515a3.989,3.989,0,0,0,.213-.789,11.1,11.1,0,0,0,0-1.611,1.631,1.631,0,0,0-3.253.051,11.194,11.194,0,0,0,0,1.554,1.611,1.611,0,0,0,1.949,1.465,4.336,4.336,0,0,0,.6-.209c.311.272.448.309.613.159S470.929,399.668,470.671,399.351Zm-3.378.362c-.018-.053-.039-.127-.068-.2q-.784-1.886-1.569-3.772c-.064-.154-.152-.274-.329-.278s-.28.118-.346.28c-.232.568-.471,1.133-.707,1.7q-.435,1.045-.869,2.09c-.093.225-.048.4.12.484a.325.325,0,0,0,.466-.194c.177-.411.354-.822.516-1.24a.233.233,0,0,1,.267-.173,8.944,8.944,0,0,0,.979,0,.358.358,0,0,1,.427.285c.139.391.31.771.475,1.153a.309.309,0,0,0,.371.2A.337.337,0,0,0,467.294,399.712Zm-5.25-3.6h.231c.359,0,.718,0,1.076,0a.314.314,0,0,0,.326-.31.331.331,0,0,0-.3-.338.793.793,0,0,0-.115-.005c-.487,0-.974,0-1.461,0-.3,0-.421.118-.421.42q0,1.884,0,3.767c0,.256.129.412.33.412s.324-.152.325-.412c0-.557,0-1.115,0-1.672v-.2a.424.424,0,0,1,.066-.017c.179,0,.359,0,.538,0,.236,0,.389-.138.383-.335a.34.34,0,0,0-.381-.319c-.2,0-.393,0-.6,0Z" transform="translate(0 -60.652)" fill="#fff"/>
    <path id="Path_78435" data-name="Path 78435" d="M561.724,331.528c0-.6-.015-1.17,0-1.739a.948.948,0,0,1,.908-.88c.07,0,.141,0,.211,0,3.622,0,7.244.009,10.865-.008a1.072,1.072,0,0,1,1.14,1.143c-.019,2.532-.008,5.064-.008,7.6a1.009,1.009,0,0,1-1.12,1.116c-.282,0-.564,0-.846,0s-.39.1-.42.381q-.069.669-.146,1.337c-.028.248-.157.311-.364.174-.529-.35-1.054-.706-1.586-1.051a.275.275,0,0,1-.117-.278c0-2.013,0-4.026,0-6.038a1.658,1.658,0,0,0-1.724-1.752q-3.279.005-6.558,0Z" transform="translate(-97.051 0)" fill="#fff"/>
    <path id="Path_78436" data-name="Path 78436" d="M633.223,459.9a.938.938,0,0,1-1.356-.693,10.845,10.845,0,0,1,0-1.667.937.937,0,0,1,.912-.811.9.9,0,0,1,.973.7,17.33,17.33,0,0,1,.013,1.872.531.531,0,0,1-.052.137c-.12-.117-.228-.221-.334-.325s-.188-.192-.286-.284a.331.331,0,1,0-.457.47c.152.156.307.308.461.463C633.134,459.8,633.172,459.844,633.223,459.9Z" transform="translate(-163.562 -121.259)" fill="#fff"/>
    <path id="Path_78437" data-name="Path 78437" d="M566.4,468.116h-.922l.458-1.106Z" transform="translate(-100.619 -131.015)" fill="#fff"/>
  </g>
</svg>
