<svg xmlns="http://www.w3.org/2000/svg" width="19.119" height="19.034" viewBox="0 0 19.119 19.034">
  <g id="Group_41540" data-name="Group 41540" transform="translate(-1467.159 -396.225)">
    <path id="Path_78441" data-name="Path 78441" d="M1573.377,464.6l.249.851c-.063,0-.132.009-.2.009-.733,0-1.466,0-2.2,0a.769.769,0,0,0-.217.023.314.314,0,0,0,.052.611,1.454,1.454,0,0,0,.2.006c.906,0,1.813,0,2.719,0a1.216,1.216,0,0,1,.262.06l0,.057c-.044.024-.088.05-.133.071a4.318,4.318,0,0,0-1.759,1.467.315.315,0,0,1-.214.128q-3.279.01-6.557,0a.733.733,0,0,1-.074-.009v-1.8l.708.407a.74.74,0,0,0,1.032-.081.35.35,0,0,1,.2-.053c.526,0,1.053,0,1.579,0,.325,0,.406-.08.406-.4q0-.93,0-1.859c0-.315-.087-.4-.408-.4-.493,0-.986,0-1.479,0a.232.232,0,0,1-.239-.127c-.581-1.017-1.17-2.03-1.752-3.047a.472.472,0,0,1-.061-.224q0-3.189,0-6.377c0-.026,0-.052.007-.094h1.889a5.075,5.075,0,0,0,.407.553.922.922,0,0,0,.7.252q2.789,0,5.578,0a1.025,1.025,0,0,0,1.014-.7c.019-.046.07-.111.107-.112.618-.007,1.236,0,1.864,0v8.316l-1.029-.295c.01-.022.032-.065.048-.11a.315.315,0,0,0-.274-.434,1.388,1.388,0,0,0-.14,0h-4.438a.9.9,0,0,0-.16.006.293.293,0,0,0-.263.282.286.286,0,0,0,.207.325.788.788,0,0,0,.236.026q1.849,0,3.7,0h.227a8.062,8.062,0,0,0-.721.393,2.333,2.333,0,0,0-.982,1.454c-.033.144-.087.179-.223.177-.68-.006-1.359-.009-2.039,0a.515.515,0,0,0-.346.141.3.3,0,0,0,.25.482c.306.013.613.005.919.006l1.319,0A.191.191,0,0,1,1573.377,464.6Zm-5.269-9.256c-.333,0-.666,0-1,0-.24,0-.339.1-.34.345q0,.978,0,1.957c0,.256.1.353.349.354q.979,0,1.957,0c.255,0,.349-.1.35-.354q0-.968,0-1.937c0-.276-.1-.365-.38-.366C1568.734,455.342,1568.421,455.343,1568.108,455.344Zm-.006,6.832c.333,0,.666,0,1,0,.22,0,.323-.1.325-.315q.008-1.008,0-2.016c0-.222-.1-.314-.322-.315q-1.008,0-2.017,0c-.215,0-.314.1-.316.322q-.005,1,0,2c0,.228.1.325.333.327C1567.436,462.177,1567.769,462.175,1568.1,462.175Zm5.321-4.427h2.178a1.429,1.429,0,0,0,.219-.009.313.313,0,0,0,.034-.61.832.832,0,0,0-.217-.02q-2.2,0-4.4,0a.919.919,0,0,0-.218.018.313.313,0,0,0,.022.611,1.261,1.261,0,0,0,.219.01Zm.018,2.026h-2.259c-.254,0-.4.116-.4.319s.143.32.4.32h4.5c.268,0,.41-.119.4-.331s-.142-.308-.405-.308Zm-.006-3.536h2.158a1.342,1.342,0,0,0,.219-.01.314.314,0,0,0-.007-.623,1.274,1.274,0,0,0-.179-.007h-4.376a1.243,1.243,0,0,0-.2.009.313.313,0,0,0-.012.615,1.117,1.117,0,0,0,.218.014Z" transform="translate(-93.072 -54.513)" fill="#fff"/>
    <path id="Path_78442" data-name="Path 78442" d="M1697.544,695.541h-3c-.409,0-.568-.214-.456-.609a3.607,3.607,0,0,1,6.925-.019c.119.413-.042.628-.473.628Z" transform="translate(-214.775 -280.283)" fill="#fff"/>
    <path id="Path_78443" data-name="Path 78443" d="M1487.958,524.225,1486.1,525.3l-3.706-6.419,1.86-1.075Z" transform="translate(-14.418 -115.084)" fill="#fff"/>
    <path id="Path_78444" data-name="Path 78444" d="M1618.115,397.307c.44,0,.879,0,1.318,0,.368,0,.5.139.5.509,0,.4,0,.8,0,1.2,0,.312-.14.463-.445.464q-2.767,0-5.533,0a.4.4,0,0,1-.454-.46c0-.419-.006-.839,0-1.258a.414.414,0,0,1,.464-.453c.406,0,.812,0,1.219,0,.092,0,.151-.007.194-.117a1.406,1.406,0,0,1,1.37-.966,1.429,1.429,0,0,1,1.329,1C1618.092,397.249,1618.1,397.273,1618.115,397.307Zm-1.393-.289a.37.37,0,1,0,.374.377A.368.368,0,0,0,1616.722,397.019Z" transform="translate(-138.526)" fill="#fff"/>
    <path id="Path_78445" data-name="Path 78445" d="M1746.138,426.909v-.832c.078,0,.148-.009.219-.009h2.239a.845.845,0,0,1,.948.948q0,3.988,0,7.976v5.584c-.278-.168-.534-.317-.784-.476-.105-.067-.085-.366.027-.51a2.442,2.442,0,0,0,.505-1.2,2.481,2.481,0,0,0-.468-1.809.67.67,0,0,1-.119-.36q-.01-4.368-.005-8.735c0-.06,0-.12,0-.18-.007-.293-.109-.4-.4-.4q-.96,0-1.919,0Z" transform="translate(-264.076 -28.248)" fill="#fff"/>
    <path id="Path_78446" data-name="Path 78446" d="M1727.333,620.163a1.823,1.823,0,1,1,1.824-1.812A1.816,1.816,0,0,1,1727.333,620.163Z" transform="translate(-244.554 -208.523)" fill="#fff"/>
    <path id="Path_78447" data-name="Path 78447" d="M1537.794,659.01c.055.095.115.188.166.285a1.138,1.138,0,0,0,.552.6c.048.02.084.126.084.193.006.746,0,1.492,0,2.238,0,.336.1.437.444.437h6.622l-.238.841H1538.7a.847.847,0,0,1-.941-.937q0-1.739,0-3.478v-.171Z" transform="translate(-66.828 -248.747)" fill="#fff"/>
    <path id="Path_78448" data-name="Path 78448" d="M1540.672,426.067v.842h-.216q-.97,0-1.939,0c-.3,0-.405.107-.405.412q0,2.709,0,5.418v.217l-.037.018c-.048-.08-.1-.16-.143-.241a2.766,2.766,0,0,1-.661-2.462q0-1.64,0-3.279a.838.838,0,0,1,.93-.924h2.472Z" transform="translate(-66.339 -28.248)" fill="#fff"/>
    <path id="Path_78449" data-name="Path 78449" d="M1467.65,489.589c-.145-.262-.294-.5-.411-.749a.759.759,0,0,1,.061-.781,1.378,1.378,0,0,1,1.085-.615.786.786,0,0,1,.713.367c.148.219.272.454.417.7Z" transform="translate(0 -86.345)" fill="#fff"/>
    <path id="Path_78450" data-name="Path 78450" d="M1598.709,650.77c.171-.211.3-.37.428-.527.156-.187.328-.219.483-.1a.331.331,0,0,1,.014.494c-.193.245-.389.488-.589.728a.328.328,0,0,1-.544.026c-.139-.133-.276-.268-.408-.409a.315.315,0,0,1-.012-.462.311.311,0,0,1,.46.016A1.664,1.664,0,0,1,1598.709,650.77Z" transform="translate(-123.838 -240.289)" fill="#fff"/>
    <path id="Path_78451" data-name="Path 78451" d="M1562.254,650.264v1.756l-1.522-.875Z" transform="translate(-88.574 -240.468)" fill="#fff"/>
    <path id="Path_78452" data-name="Path 78452" d="M1598.72,494.429c.182-.224.309-.386.442-.543a.321.321,0,0,1,.472-.081.326.326,0,0,1,.026.478c-.2.256-.4.51-.615.758a.318.318,0,0,1-.516.026q-.217-.205-.422-.423a.317.317,0,0,1-.014-.463.308.308,0,0,1,.46.013A1.651,1.651,0,0,1,1598.72,494.429Z" transform="translate(-123.851 -92.301)" fill="#fff"/>
    <path id="Path_78453" data-name="Path 78453" d="M1598.725,572.64c.172-.211.3-.379.441-.54a.319.319,0,1,1,.493.4q-.3.385-.613.761a.319.319,0,0,1-.517.033q-.218-.2-.423-.423a.318.318,0,1,1,.443-.456A1.914,1.914,0,0,1,1598.725,572.64Z" transform="translate(-123.846 -166.346)" fill="#fff"/>
  </g>
</svg>
