<svg xmlns="http://www.w3.org/2000/svg" width="23.562" height="18.322" viewBox="0 0 23.562 18.322">
  <path id="Icon_awesome-home" data-name="Icon awesome-home" d="M11.467,7.007,3.926,13.218v6.7a.654.654,0,0,0,.654.654l4.584-.012a.654.654,0,0,0,.651-.654V15.995a.654.654,0,0,1,.654-.654h2.618a.654.654,0,0,1,.654.654v3.912a.654.654,0,0,0,.654.656l4.582.013a.654.654,0,0,0,.654-.654V13.213l-7.54-6.207A.5.5,0,0,0,11.467,7.007Zm11.912,4.222L19.96,8.41V2.744a.491.491,0,0,0-.491-.491H17.179a.491.491,0,0,0-.491.491v2.97L13.026,2.7a1.963,1.963,0,0,0-2.5,0L.177,11.228a.491.491,0,0,0-.065.691l1.043,1.268a.491.491,0,0,0,.692.067L11.467,5.33a.5.5,0,0,1,.626,0l9.621,7.924a.491.491,0,0,0,.691-.065l1.043-1.268a.491.491,0,0,0-.07-.692Z" transform="translate(0.001 -2.254)" fill="#fff"/>
</svg>
