<svg xmlns="http://www.w3.org/2000/svg" width="16.048" height="16.048" viewBox="0 0 16.048 16.048">
  <g id="Icon_ionic-ios-arrow-dropright" data-name="Icon ionic-ios-arrow-dropright" transform="translate(-3.375 -3.375)">
    <path id="Path_78488" data-name="Path 78488" d="M14.634,10.2a.747.747,0,0,1,1.053,0l3.68,3.692a.744.744,0,0,1,.023,1.026l-3.626,3.638a.743.743,0,1,1-1.053-1.049l3.082-3.129-3.159-3.129A.736.736,0,0,1,14.634,10.2Z" transform="translate(-4.983 -2.982)" fill="#6ba4e9"/>
    <path id="Path_78489" data-name="Path 78489" d="M3.375,11.4A8.024,8.024,0,1,0,11.4,3.375,8.023,8.023,0,0,0,3.375,11.4Zm1.234,0A6.787,6.787,0,0,1,16.2,6.6a6.787,6.787,0,1,1-9.6,9.6A6.731,6.731,0,0,1,4.609,11.4Z" fill="#6ba4e9"/>
  </g>
</svg>
