<svg xmlns="http://www.w3.org/2000/svg" width="18.252" height="18.252" viewBox="0 0 18.252 18.252">
  <g id="Icon_ionic-ios-arrow-dropright" data-name="Icon ionic-ios-arrow-dropright" transform="translate(-3.375 -3.375)">
    <path id="Path_78409" data-name="Path 78409" d="M14.664,10.229a.85.85,0,0,1,1.2,0l4.186,4.2a.846.846,0,0,1,.026,1.167L15.95,19.733a.845.845,0,1,1-1.2-1.193l3.506-3.558-3.593-3.558A.837.837,0,0,1,14.664,10.229Z" transform="translate(-4.151 -2.484)" fill="#185288"/>
    <path id="Path_78410" data-name="Path 78410" d="M3.375,12.5A9.126,9.126,0,1,0,12.5,3.375,9.125,9.125,0,0,0,3.375,12.5Zm1.4,0a7.719,7.719,0,0,1,13.18-5.458A7.719,7.719,0,1,1,7.043,17.959,7.656,7.656,0,0,1,4.779,12.5Z" transform="translate(0 0)" fill="#185288"/>
  </g>
</svg>
