<svg xmlns="http://www.w3.org/2000/svg" width="15.676" height="17.916" viewBox="0 0 15.676 17.916">
  <path id="Icon_metro-attachment" data-name="Icon metro-attachment" d="M14.624,7.65,13.488,6.514,7.8,12.2A2.411,2.411,0,0,0,11.214,15.6l6.819-6.818a4.018,4.018,0,0,0-5.682-5.681l-7.16,7.159-.015.015A5.6,5.6,0,0,0,13.1,18.2l.014-.015h0L18,13.3l-1.137-1.136L11.98,17.052l-.015.015a4,4,0,0,1-5.652-5.651l.016-.015h0l7.161-7.159A2.411,2.411,0,0,1,16.9,7.65l-6.819,6.818a.8.8,0,0,1-1.137-1.136L14.624,7.65Z" transform="translate(-3.535 -1.928)" fill="#326696"/>
</svg>
