<svg xmlns="http://www.w3.org/2000/svg" width="19.119" height="19.126" viewBox="0 0 19.119 19.126">
  <g id="Group_41538" data-name="Group 41538" transform="translate(-1152.008 -803.873)">
    <path id="Path_78438" data-name="Path 78438" d="M1162.124,823H1161c-.32-.04-.642-.069-.96-.122a9.587,9.587,0,0,1-7.99-10.4,9.122,9.122,0,0,1,2.335-5.344,9.362,9.362,0,0,1,6.773-3.244,9.094,9.094,0,0,1,5.275,1.333,9.423,9.423,0,0,1,4.541,6.572c.067.359.1.723.149,1.086V814q-.023.2-.046.4a9.592,9.592,0,0,1-7.87,8.451C1162.851,822.913,1162.487,822.949,1162.124,823Zm-.56-11.954h2.11c.623,0,1.245.007,1.867,0a.792.792,0,0,0,.76-1.047.831.831,0,0,0-.883-.547h-7.712a1.653,1.653,0,0,0-.26.02.784.784,0,0,0-.632.986.8.8,0,0,0,.828.589Q1159.6,811.046,1161.565,811.044Zm0,4.782h-2.073c-.635,0-1.27-.007-1.9,0a.792.792,0,0,0-.76,1.047.831.831,0,0,0,.882.547h7.712a1.671,1.671,0,0,0,.26-.02.784.784,0,0,0,.633-.986.8.8,0,0,0-.828-.589Q1163.524,815.824,1161.563,815.826Zm-.012-1.6h3.287c.261,0,.523.008.784-.009a.782.782,0,0,0,.7-.971.8.8,0,0,0-.886-.608H1157.7c-.068,0-.137,0-.205.007a.794.794,0,0,0,.152,1.58Q1159.6,814.232,1161.551,814.229Z" transform="translate(0)" fill="#fff"/>
  </g>
</svg>
