<svg xmlns="http://www.w3.org/2000/svg" width="19.118" height="18.854" viewBox="0 0 19.118 18.854">
  <g id="Group_41543" data-name="Group 41543" transform="translate(-1446.469 165.708)">
    <path id="Path_78461" data-name="Path 78461" d="M1446.469,38.21c.265-.769.532-1.538.79-2.309a.352.352,0,0,0-.031-.226,6.161,6.161,0,0,1-.494-2.729,5.831,5.831,0,0,1,1.219-3.224c.861,4.658,3.627,7.383,8.327,8.2-.253.167-.5.356-.777.508a5.66,5.66,0,0,1-3.909.657,10.8,10.8,0,0,1-1.336-.4.48.48,0,0,0-.336-.011c-.6.213-1.222.387-1.812.633a1.128,1.128,0,0,1-1.642-.723Z" transform="translate(0 -186.286)" fill="#fff"/>
    <path id="Path_78462" data-name="Path 78462" d="M1518.348-157.614a7.675,7.675,0,0,1-.715,3.381.478.478,0,0,0-.02.389q.52,1.487,1.027,2.978a1.244,1.244,0,0,1-1.266,1.7,1.62,1.62,0,0,1-.4-.095c-.965-.327-1.93-.654-2.891-.993a.6.6,0,0,0-.493.027,8.087,8.087,0,0,1-10.784-4.319,8.016,8.016,0,0,1,4.4-10.5,7.745,7.745,0,0,1,8.362,1.357,7.776,7.776,0,0,1,2.741,5.088,4.1,4.1,0,0,1,.04.409C1518.353-158,1518.348-157.807,1518.348-157.614Zm-8.06-.657q-1.633,0-3.266,0a1.122,1.122,0,0,0-.294.034.56.56,0,0,0-.4.547.56.56,0,0,0,.437.537,1.352,1.352,0,0,0,.278.024q3.247,0,6.495,0a1.365,1.365,0,0,0,.259-.021.554.554,0,0,0,.45-.543.577.577,0,0,0-.637-.579Q1511.95-158.273,1510.289-158.271Zm0-1.2h2.93c.168,0,.336.007.5,0a.565.565,0,0,0,.525-.5.552.552,0,0,0-.372-.6,1.2,1.2,0,0,0-.349-.038q-3.229,0-6.458,0a1.614,1.614,0,0,0-.26.014.53.53,0,0,0-.443.378.567.567,0,0,0,.584.745C1508.059-159.469,1509.172-159.471,1510.286-159.471Zm-1.314,4.677h0c.666,0,1.332,0,2,0a.988.988,0,0,0,.276-.028.558.558,0,0,0,.385-.626.552.552,0,0,0-.543-.473c-.448-.008-.9,0-1.344,0-.933,0-1.867,0-2.8,0a.566.566,0,0,0-.567.347.557.557,0,0,0,.524.782C1507.59-154.787,1508.281-154.794,1508.972-154.794Z" transform="translate(-53.132)" fill="#fff"/>
  </g>
</svg>
