<svg xmlns="http://www.w3.org/2000/svg" width="18.943" height="18.943" viewBox="0 0 18.943 18.943">
  <path id="Icon_ionic-ios-paper" data-name="Icon ionic-ios-paper" d="M6.836,4.832V19.5a.639.639,0,0,1-.638.638h0a.639.639,0,0,1-.638-.638V6.289H4.832A1.456,1.456,0,0,0,3.375,7.747V20.861a1.456,1.456,0,0,0,1.457,1.457H20.911a1.408,1.408,0,0,0,1.407-1.407V4.832a1.456,1.456,0,0,0-1.457-1.457L8.2,3.466A1.305,1.305,0,0,0,6.836,4.832ZM9.841,6.289h3.825a.639.639,0,0,1,.638.638h0a.639.639,0,0,1-.638.638H9.841A.639.639,0,0,1,9.2,6.927h0A.639.639,0,0,1,9.841,6.289Zm0,7.286h6.739a.639.639,0,0,1,.638.638h0a.639.639,0,0,1-.638.638H9.841a.639.639,0,0,1-.638-.638h0A.639.639,0,0,1,9.841,13.575Zm8.925,4.918H9.841a.639.639,0,0,1-.638-.638h0a.639.639,0,0,1,.638-.638h8.925a.639.639,0,0,1,.638.638h0A.639.639,0,0,1,18.766,18.493Zm0-7.286H9.841A.639.639,0,0,1,9.2,10.57h0a.639.639,0,0,1,.638-.638h8.925a.639.639,0,0,1,.638.638h0A.639.639,0,0,1,18.766,11.207Z" transform="translate(-3.375 -3.375)" fill="#fff"/>
</svg>
