<svg xmlns="http://www.w3.org/2000/svg" width="41.241" height="41.326" viewBox="0 0 41.241 41.326">
  <g id="Group_41608" data-name="Group 41608" transform="translate(-398.056 -156.75)">
    <path id="Path_78463" data-name="Path 78463" d="M408.609,198.076H400.07c-1.6-.606-2.014-1.217-2.014-2.964q0-6.133,0-12.266a2.461,2.461,0,0,1,2.744-2.769c2.242,0,4.484.022,6.725-.01a2.865,2.865,0,0,1,2.676,1.066c1.052-1.054,2.056-2.081,3.088-3.08a.736.736,0,0,0,.216-.84q-1.9-7.037-3.774-14.082c-.2-.748-.007-1.08.735-1.279q2.466-.66,4.933-1.317c.823-.22,1.645-.446,2.474-.67,0-.7.024-1.36-.008-2.017a1.065,1.065,0,0,1,.572-1.1H439.3v41.326H413.6a5.945,5.945,0,0,1-3.037-1.849A2.613,2.613,0,0,1,408.609,198.076Zm29.063-39.683H419.517v22.546h1.543v-.462q0-7.364,0-14.728c0-.269-.008-.538,0-.807a.794.794,0,0,1,.825-.85,2.156,2.156,0,0,0,2.135-2.1c.07-.632.338-.883.968-.884q3.584,0,7.169,0c.657,0,.918.243.99.9a2.155,2.155,0,0,0,2.153,2.08.775.775,0,0,1,.8.828c.016,1.062.028,2.126-.013,3.187a1.023,1.023,0,0,1-.383.692.775.775,0,0,1-1.2-.716c-.025-.712-.016-1.426,0-2.138,0-.242-.087-.327-.31-.425a6.5,6.5,0,0,1-1.326-.735,3.6,3.6,0,0,1-1.26-2.043h-6.048a3.761,3.761,0,0,1-2.505,2.75.49.49,0,0,0-.394.569q.015,7.223.008,14.446c0,.142.014.285.021.432h4.223c-1.94-1.421-2.573-2.923-2-4.7a3.847,3.847,0,0,1,7.306-.1c.626,1.785.042,3.237-1.983,4.833,1.138-.033,2.241-.091,3.083.793a2.762,2.762,0,0,1,.595,3.062l.588.051v-.5q0-4.156,0-8.312a2.723,2.723,0,0,1,.035-.521.788.788,0,0,1,1.553.052,3.381,3.381,0,0,1,.021.483c0,3.161,0,6.322.007,9.483a1.294,1.294,0,0,0,.148.605,2.751,2.751,0,0,1-1.342,3.966c-.082.035-.161.076-.263.125a2.713,2.713,0,0,1-.211,2.741,2.817,2.817,0,0,1-2.5,1.221,2.915,2.915,0,0,1,.01,2.221h5.71ZM414.149,179.52a.792.792,0,0,0-.133.08c-1.083,1.083-2.169,2.164-3.242,3.258a.663.663,0,0,0-.146.428q-.012,5.286,0,10.573a.778.778,0,0,0,.235.5c.489.46,1.017.877,1.509,1.335a2.844,2.844,0,0,0,2.048.774q7.35-.018,14.7-.006c.921,0,1.453-.42,1.446-1.14s-.533-1.12-1.465-1.12h-5.558a2.743,2.743,0,0,1-.362-.009.816.816,0,0,1-.711-.84.831.831,0,0,1,.917-.763q4.229,0,8.458,0a4.372,4.372,0,0,0,.443-.008,1.126,1.126,0,0,0-.01-2.244c-.133-.013-.268-.007-.4-.007h-8.216c-.094,0-.188,0-.282,0a.813.813,0,1,1,.016-1.612q5.1,0,10.19,0a4.1,4.1,0,0,0,.443-.01,1.144,1.144,0,0,0,.987-.879,1.077,1.077,0,0,0-.539-1.2,1.955,1.955,0,0,0-.811-.165c-3.423-.011-6.847-.006-10.27-.008a.812.812,0,1,1-.015-1.612c.389-.006.779,0,1.168,0q3.343,0,6.686,0a1.14,1.14,0,1,0-.015-2.259H415.756a.87.87,0,0,1-1.025-.795C414.538,181.035,414.346,180.287,414.149,179.52Zm-10.615,2.17h-2.817c-.776,0-1.049.269-1.049,1.036q0,6.355,0,12.71c0,.743.28,1.024,1.02,1.025q3.624,0,7.248,0c.821,0,1.076-.258,1.076-1.09q0-6.294,0-12.588a2.577,2.577,0,0,0-.008-.363.724.724,0,0,0-.664-.7c-1.054-.037-2.11-.013-3.194-.013v.473q0,3.833,0,7.666c0,.39.013.781-.006,1.17a.782.782,0,0,1-.812.775.792.792,0,0,1-.788-.759c-.01-.12,0-.242,0-.363q0-2.986,0-5.971Zm14.258-.74c-.045-.173-.084-.327-.125-.48q-1.47-5.465-2.941-10.929c-.2-.728-.05-1,.65-1.264a2.185,2.185,0,0,0,1.442-2.35c-.119-.942-.05-1.047.822-1.348a.374.374,0,0,0,.223-.253c.016-.912.01-1.825.01-2.789l-6.449,1.733,4.764,17.679Zm13.042-3.54a2.247,2.247,0,1,0-2.255,2.253A2.267,2.267,0,0,0,430.833,177.411Zm-12.983-8.989c-.425.355-.866.712-1.289,1.09a.4.4,0,0,0-.078.332c.17.689.36,1.373.544,2.058q.389,1.445.781,2.889l.042-.011Z" transform="translate(0)" fill="#185288"/>
    <path id="Path_78464" data-name="Path 78464" d="M738.391,292.595a.8.8,0,0,1-.8.793.8.8,0,1,1,.024-1.609A.8.8,0,0,1,738.391,292.595Z" transform="translate(-302.287 -120.496)" fill="#185288"/>
    <path id="Path_78465" data-name="Path 78465" d="M449.785,497.385a.8.8,0,1,1,.8-.783A.813.813,0,0,1,449.785,497.385Z" transform="translate(-45.446 -302.541)" fill="#185288"/>
  </g>
</svg>
