<svg xmlns="http://www.w3.org/2000/svg" width="19.119" height="19.119" viewBox="0 0 19.119 19.119">
  <g id="Group_41539" data-name="Group 41539" transform="translate(-316.079 -645.141)">
    <path id="Path_78439" data-name="Path 78439" d="M324.406,645.141h2.464a.708.708,0,0,1,.475.589,6.143,6.143,0,0,0,.16.651.276.276,0,0,0,.156.168,8.858,8.858,0,0,1,2.317.96.277.277,0,0,0,.228-.007c.215-.112.418-.246.628-.367a.578.578,0,0,1,.794.095q.743.735,1.478,1.478a.58.58,0,0,1,.1.808c-.122.209-.254.413-.368.627a.256.256,0,0,0-.006.212,8.8,8.8,0,0,1,.967,2.334.254.254,0,0,0,.157.144c.25.072.506.125.759.189a.579.579,0,0,1,.487.615q.005,1.064,0,2.128a.58.58,0,0,1-.488.614c-.247.063-.493.128-.743.177a.2.2,0,0,0-.182.174,8.058,8.058,0,0,1-.953,2.3.206.206,0,0,0,.008.251c.13.2.252.414.373.624a.57.57,0,0,1-.093.779q-.741.75-1.491,1.492a.578.578,0,0,1-.794.093c-.21-.121-.413-.255-.627-.367a.276.276,0,0,0-.228,0,8.865,8.865,0,0,1-2.317.959.274.274,0,0,0-.154.169c-.073.244-.124.494-.186.741a.582.582,0,0,1-.627.5q-1.055,0-2.109,0a.584.584,0,0,1-.624-.5c-.062-.247-.127-.494-.177-.743a.193.193,0,0,0-.164-.17c-.228-.06-.458-.118-.679-.2-.3-.108-.594-.236-.9-.359a.849.849,0,0,1,.054-.072q1.24-1.241,2.485-2.478a.3.3,0,0,1,.229-.066,5.15,5.15,0,0,0,1.505,0,4.8,4.8,0,0,0,3.109-1.643,4.871,4.871,0,0,0,1.183-4.09,5.019,5.019,0,0,0-7.3-3.689,4.867,4.867,0,0,0-2.522,3.152,5.1,5.1,0,0,0-.1,2.107.312.312,0,0,1-.1.3q-1.184,1.178-2.359,2.366c-.043.043-.089.084-.142.135a1.311,1.311,0,0,1-.074-.144c-.166-.461-.34-.919-.491-1.385a.28.28,0,0,0-.24-.231c-.2-.035-.386-.1-.581-.133a.725.725,0,0,1-.608-.478v-2.464a.728.728,0,0,1,.607-.478c.219-.042.437-.1.651-.158a.237.237,0,0,0,.146-.133,8.769,8.769,0,0,1,.973-2.348.236.236,0,0,0,0-.2c-.118-.219-.253-.427-.377-.642a.583.583,0,0,1,.1-.807q.729-.735,1.464-1.464a.582.582,0,0,1,.807-.1c.215.125.424.26.642.378a.237.237,0,0,0,.2,0,8.764,8.764,0,0,1,2.348-.973.236.236,0,0,0,.134-.144c.065-.22.121-.444.164-.669A.712.712,0,0,1,324.406,645.141Z" fill="#fff"/>
    <path id="Path_78440" data-name="Path 78440" d="M316.079,777.292a2.3,2.3,0,0,1,.778-1.3c1.656-1.644,3.3-3.3,4.954-4.943a.277.277,0,0,0,.085-.322,3.912,3.912,0,0,1,4.756-4.918.549.549,0,0,1,.233.955c-.4.41-.812.807-1.212,1.216a1.116,1.116,0,0,0-.089,1.55,1.082,1.082,0,0,0,1.537.14c.459-.408.875-.866,1.325-1.286a.876.876,0,0,1,.434-.215.508.508,0,0,1,.547.411,3.91,3.91,0,0,1-2.857,4.829,4,4,0,0,1-2.116-.081c-.125-.041-.181.014-.253.086q-2.579,2.581-5.159,5.161a1.678,1.678,0,0,1-1.749.5,1.625,1.625,0,0,1-1.181-1.291c-.01-.042-.022-.083-.034-.124Z" transform="translate(0 -114.9)" fill="#fff"/>
  </g>
</svg>
