<svg xmlns="http://www.w3.org/2000/svg" width="18.393" height="18.322" viewBox="0 0 18.393 18.322">
  <g id="Group_41535" data-name="Group 41535" transform="translate(-1048.644 -324.652)">
    <path id="Path_78421" data-name="Path 78421" d="M1260.438,526.675c-.045.324-.082.65-.138.973a9.271,9.271,0,0,1-8.209,7.6c-.095.009-.19.011-.3.017v-8.626h8.645Z" transform="translate(-193.401 -192.295)" fill="#fff"/>
    <path id="Path_78422" data-name="Path 78422" d="M1404.41,462.851h-1.389v-2.083h1.389Z" transform="translate(-337.373 -129.585)" fill="#fff"/>
    <path id="Path_78423" data-name="Path 78423" d="M1051.669,340.564a9.061,9.061,0,0,1-2.479-9.852,9.2,9.2,0,0,1,8.112-6.061v.192q0,4.3,0,8.6a.5.5,0,0,1-.1.289q-2.714,3.368-5.438,6.729C1051.733,340.5,1051.7,340.53,1051.669,340.564Z" transform="translate(0 0)" fill="#fff"/>
    <path id="Path_78424" data-name="Path 78424" d="M1133.79,547.349v7.637a9.084,9.084,0,0,1-4.793-1.712Z" transform="translate(-76.497 -212.012)" fill="#fff"/>
    <path id="Path_78425" data-name="Path 78425" d="M1303.389,361.868h-1.325V354.7h1.325Z" transform="translate(-241.26 -28.609)" fill="#fff"/>
    <path id="Path_78426" data-name="Path 78426" d="M1253.081,413.221h-1.31v-4.578h1.31Z" transform="translate(-193.38 -79.961)" fill="#fff"/>
    <path id="Path_78427" data-name="Path 78427" d="M1354,431.029v3.5h-1.321v-3.5Z" transform="translate(-289.451 -101.273)" fill="#fff"/>
  </g>
</svg>
