<svg xmlns="http://www.w3.org/2000/svg" width="35.491" height="42.251" viewBox="0 0 35.491 42.251">
  <g id="Group_41617" data-name="Group 41617" transform="translate(-981.298 -142.554)">
    <path id="Path_78466" data-name="Path 78466" d="M1086.437,142.554a18.153,18.153,0,0,1,1.817.5,7,7,0,1,1-3.535-.426,1.519,1.519,0,0,0,.232-.072Z" transform="translate(-86.654 0)" fill="#185288"/>
    <path id="Path_78467" data-name="Path 78467" d="M1024.365,339.154c-1.066-.4-2.105-.784-3.144-1.173l-8.948-3.356a1.348,1.348,0,0,1-1.1-1.562c0-.754,0-1.509,0-2.291.309-.019.6-.015.875-.057a3.556,3.556,0,0,0,3.188-3.186,21.78,21.78,0,0,0,0-4.283,3.6,3.6,0,0,0-3.712-3.23c-.1,0-.192,0-.353,0v-1.23c0-.468,0-.935,0-1.4a1.244,1.244,0,0,1,1.8-1.236q3.34,1.242,6.675,2.5c1.466.55,2.93,1.105,4.4,1.647a.422.422,0,0,1,.343.462q-.014,9.038-.008,18.077C1024.383,338.926,1024.373,339.019,1024.365,339.154Z" transform="translate(-26.582 -154.349)" fill="#185288"/>
    <path id="Path_78468" data-name="Path 78468" d="M1166.55,330.8c0,.948.034,1.855-.012,2.757-.031.608-.483.912-1.023,1.112q-3.108,1.153-6.211,2.322l-5.4,2.024c-.165.062-.332.118-.532.188-.008-.149-.021-.267-.021-.384q0-8.977-.008-17.954a.473.473,0,0,1,.367-.53q5.484-2.038,10.959-4.1a1.265,1.265,0,0,1,1.888,1.311c0,.823,0,1.647,0,2.478a12.061,12.061,0,0,0-1.239.147,3.6,3.6,0,0,0-2.855,3.236,29.987,29.987,0,0,0,0,4.041,3.662,3.662,0,0,0,3.617,3.35C1166.219,330.8,1166.356,330.8,1166.55,330.8Z" transform="translate(-153.074 -154.403)" fill="#185288"/>
    <path id="Path_78469" data-name="Path 78469" d="M1054.941,281.663a13.9,13.9,0,0,1,4.3-2.651.564.564,0,0,1,.411.075,9.373,9.373,0,0,0,9.8.012.651.651,0,0,1,.485-.064,13.755,13.755,0,0,1,4.126,2.523.856.856,0,0,1,.094.135l-2.278.854c-2.312.868-4.622,1.743-6.939,2.6a1.1,1.1,0,0,1-.7.014c-2.986-1.1-5.965-2.225-8.945-3.343C1055.2,281.776,1055.1,281.729,1054.941,281.663Z" transform="translate(-65.521 -121.396)" fill="#185288"/>
    <path id="Path_78470" data-name="Path 78470" d="M986.244,377.472c0,.523.007,1.046,0,1.568a1.243,1.243,0,0,1-1.3,1.3,4.165,4.165,0,0,1-2.055-.309,2.887,2.887,0,0,1,1.194-5.465c.316-.01.633-.013.949,0a1.229,1.229,0,0,1,1.209,1.217C986.257,376.344,986.244,376.908,986.244,377.472Z" transform="translate(0 -206.417)" fill="#185288"/>
    <path id="Path_78471" data-name="Path 78471" d="M1258.182,377.489c0-.535-.008-1.071,0-1.606a1.225,1.225,0,0,1,1.247-1.257,7.24,7.24,0,0,1,1.393.07,2.855,2.855,0,0,1,2.3,3.06,2.9,2.9,0,0,1-2.789,2.639c-.315.01-.632.014-.947,0a1.243,1.243,0,0,1-1.207-1.218c0-.027,0-.055,0-.082Q1258.181,378.292,1258.182,377.489Z" transform="translate(-246.347 -206.477)" fill="#185288"/>
  </g>
</svg>
