<svg id="Group_41338" data-name="Group 41338" xmlns="http://www.w3.org/2000/svg" width="21.1" height="20.221" viewBox="0 0 21.1 20.221">
  <path id="Path_78403" data-name="Path 78403" d="M789.85,349.245v.371c-.055.315-.116.63-.163.946q-.406,2.707-.806,5.416t-.8,5.4c-.217,1.459-.433,2.918-.657,4.376a.744.744,0,0,1-.154.35.684.684,0,0,1-.825.161q-4.465-1.531-8.932-3.056c-.048-.016-.094-.039-.158-.066l8.842-10.654a.221.221,0,0,0-.158.062q-5.59,4.78-11.177,9.563a.325.325,0,0,1-.366.068q-2.537-.876-5.079-1.736a1,1,0,0,1-.664-.524v-.33a.921.921,0,0,1,.446-.484q5.39-2.807,10.775-5.622,4.528-2.365,9.055-4.732h.33A.9.9,0,0,1,789.85,349.245Z" transform="translate(-768.75 -348.75)" fill="#fff"/>
  <path id="Path_78404" data-name="Path 78404" d="M908.839,630.655l3.539,1.209a1.354,1.354,0,0,1-.072.126q-1.132,1.542-2.266,3.082a.652.652,0,0,1-1.136-.036.713.713,0,0,1-.077-.314c-.005-1.317,0-2.634,0-3.951A.983.983,0,0,1,908.839,630.655Z" transform="translate(-901.125 -615.165)" fill="#fff"/>
</svg>
