<svg xmlns="http://www.w3.org/2000/svg" width="18.393" height="14.209" viewBox="0 0 18.393 14.209">
  <g id="Group_41536" data-name="Group 41536" transform="translate(-735.2 -723.496)">
    <path id="Path_78428" data-name="Path 78428" d="M735.2,738.989a.946.946,0,0,1,.915-.721q2.038,0,4.076,0c.029,0,.058,0,.1.007v.284q0,5.754,0,11.508a1.338,1.338,0,0,0,1.423,1.429h.551a.9.9,0,0,1-.69.271h-5.242a.978.978,0,0,1-1.135-.742Zm2.613.608a1.1,1.1,0,0,0-.655,1.99,1.366,1.366,0,0,0,.723.229.666.666,0,0,1,.612.694.68.68,0,0,1-.648.647.67.67,0,0,1-.7-.626c-.014-.153-.067-.258-.231-.26-.142,0-.219.13-.2.32a1.117,1.117,0,0,0,1.052,1,1.1,1.1,0,0,0,.377-2.157,2.534,2.534,0,0,0-.406-.063.673.673,0,0,1-.33-1.2.677.677,0,0,1,1.089.521.207.207,0,0,0,.225.224c.128,0,.209-.113.2-.266A1.106,1.106,0,0,0,737.813,739.6Zm.012,9.59c-.538,0-1.077,0-1.615,0-.194,0-.261.065-.264.256,0,.239,0,.479,0,.718,0,.2.068.274.268.274q1.606,0,3.212,0c.2,0,.264-.077.266-.278,0-.227,0-.455,0-.682s-.064-.288-.287-.288C738.878,749.187,738.351,749.188,737.825,749.188Zm-.012-3.016c-.485,0-.97,0-1.455,0-.18,0-.271.074-.271.213s.094.217.271.217q1.455,0,2.909,0c.187,0,.291-.084.279-.226-.014-.17-.13-.206-.279-.206C738.783,746.173,738.3,746.172,737.813,746.172Zm0-1.566c.491,0,.982,0,1.472,0,.192,0,.319-.139.242-.274a.352.352,0,0,0-.252-.148c-.382-.016-.766-.007-1.149-.007h-1.759c-.119,0-.231.017-.275.151-.051.157.052.277.248.279C736.836,744.607,737.327,744.605,737.817,744.605Zm-.007,3.982h1.49c.139,0,.238-.054.245-.2s-.1-.219-.24-.229h-.054q-1.437,0-2.873,0c-.195,0-.29.074-.292.215s.09.214.287.215Z" transform="translate(0 -14.062)" fill="#fff"/>
    <path id="Path_78429" data-name="Path 78429" d="M850.162,730.263c0-1.9.013-3.808-.008-5.712a.989.989,0,0,1,1.058-1.054c1.772.018,3.544.006,5.317.007a.913.913,0,0,1,.948.693,1.263,1.263,0,0,1,.028.3q0,5.757,0,11.513a.909.909,0,0,1-1,.991q-2.676,0-5.353,0a.91.91,0,0,1-.994-.992Q850.16,733.137,850.162,730.263Zm3.664-1.631a1.1,1.1,0,0,0,.24-2.184c-.122-.026-.251-.022-.374-.045a.669.669,0,0,1-.526-.761.675.675,0,0,1,1.341.064c.017.154.072.256.236.253.132,0,.209-.126.2-.291a1.107,1.107,0,0,0-2.141-.314,1.066,1.066,0,0,0,.429,1.3,1.948,1.948,0,0,0,.676.2.687.687,0,0,1,.6.777.676.676,0,0,1-1.342-.08c-.017-.15-.082-.245-.234-.232s-.2.125-.2.27A1.111,1.111,0,0,0,853.826,728.632Zm.009,7.237c.532,0,1.065,0,1.6,0,.2,0,.271-.069.273-.268q0-.359,0-.718c0-.191-.068-.262-.259-.263q-1.615,0-3.23,0c-.188,0-.253.073-.255.266,0,.221,0,.443,0,.664,0,.262.055.318.313.319C852.795,735.87,853.315,735.869,853.835,735.869Zm.011-6.45c-.5,0-1.006,0-1.509,0-.139,0-.232.067-.232.215s.094.214.233.214c.994,0,1.987,0,2.981-.006a.314.314,0,0,0,.229-.151c.07-.143-.055-.272-.248-.273C854.816,729.417,854.331,729.419,853.846,729.419Zm.005,3.985c-.5,0-.994,0-1.491,0-.174,0-.269.086-.256.227.016.171.136.2.282.2h2.873c.208,0,.3-.073.3-.22s-.1-.21-.311-.21Zm-.01-1.562h1.382c.06,0,.133.014.176-.015.066-.045.154-.123.152-.185a.359.359,0,0,0-.143-.212c-.037-.031-.115-.018-.174-.018h-2.8c-.059,0-.137-.014-.174.017a.36.36,0,0,0-.145.211c0,.062.085.141.15.187.042.029.116.015.175.015Z" transform="translate(-109.437 0)" fill="#fff"/>
    <path id="Path_78430" data-name="Path 78430" d="M973.1,738.257h4.068a.924.924,0,0,1,1.026,1.035v11.438a.929.929,0,0,1-1.02,1.026h-5.315a.954.954,0,0,1-.735-.271c.214,0,.389,0,.565,0a1.335,1.335,0,0,0,1.411-1.406q0-5.782,0-11.564Zm2.665,1.331a1.1,1.1,0,0,0-.329,2.157,3.327,3.327,0,0,0,.424.065.67.67,0,0,1,.571.623.675.675,0,1,1-1.349.065c-.02-.147-.081-.247-.233-.235s-.205.124-.2.27a1.107,1.107,0,0,0,2.212-.016,1.129,1.129,0,0,0-1.139-1.158.659.659,0,0,1-.645-.681.678.678,0,0,1,.635-.658.667.667,0,0,1,.714.629c.015.155.071.256.236.253.138,0,.211-.125.2-.306A1.108,1.108,0,0,0,975.768,739.588Zm-.011,9.59c-.532,0-1.065,0-1.6,0-.2,0-.273.067-.275.264q0,.359,0,.718c0,.188.073.266.259.266q1.615,0,3.23,0c.187,0,.253-.075.256-.268,0-.227,0-.455,0-.682s-.058-.3-.295-.3Zm.012-3.014c-.491,0-.982,0-1.473,0-.18,0-.271.076-.269.215s.093.214.273.215q1.455,0,2.91,0c.148,0,.265-.041.277-.211.01-.144-.089-.22-.281-.22Zm0-1.564h1.382c.06,0,.133.015.176-.014.066-.045.154-.123.153-.185a.342.342,0,0,0-.142-.212c-.043-.034-.126-.019-.192-.019h-2.765c-.065,0-.149-.015-.192.018a.344.344,0,0,0-.147.209c0,.062.085.141.151.187.042.029.116.015.175.015Zm.006,3.981c.485,0,.97,0,1.454,0,.191,0,.291-.1.257-.256s-.147-.174-.275-.174q-1.445,0-2.891,0c-.193,0-.29.077-.29.218s.091.212.29.212C974.8,748.582,975.287,748.581,975.772,748.581Z" transform="translate(-224.603 -14.052)" fill="#fff"/>
    <path id="Path_78431" data-name="Path 78431" d="M759.87,975.449v-.362h2.866v.362Z" transform="translate(-23.486 -239.516)" fill="#fff"/>
    <path id="Path_78432" data-name="Path 78432" d="M896.935,964.883v-.359H899.8v.359Z" transform="translate(-153.973 -229.46)" fill="#fff"/>
    <path id="Path_78433" data-name="Path 78433" d="M1040.737,975.075v.359h-2.863v-.359Z" transform="translate(-288.148 -239.505)" fill="#fff"/>
  </g>
</svg>
