<svg xmlns="http://www.w3.org/2000/svg" width="23.562" height="18.849" viewBox="0 0 23.562 18.849">
  <path id="Icon_awesome-chalkboard-teacher" data-name="Icon awesome-chalkboard-teacher" d="M7.657,12.959A.842.842,0,0,0,7.4,13a4.856,4.856,0,0,1-1.507.254A4.861,4.861,0,0,1,4.383,13a.84.84,0,0,0-.26-.04A4.124,4.124,0,0,0,0,17.1a1.763,1.763,0,0,0,1.767,1.744h8.247A1.763,1.763,0,0,0,11.781,17.1,4.124,4.124,0,0,0,7.657,12.959ZM5.89,11.781A3.534,3.534,0,1,0,2.356,8.247,3.534,3.534,0,0,0,5.89,11.781ZM21.794,0H7.657A1.8,1.8,0,0,0,5.89,1.826V3.534a4.659,4.659,0,0,1,2.356.655V2.356H21.205v10.6H18.849V10.6H14.137v2.356H11.33a4.692,4.692,0,0,1,1.461,2.356h9a1.8,1.8,0,0,0,1.767-1.826V1.826A1.8,1.8,0,0,0,21.794,0Z" transform="translate(0)" fill="#fff"/>
</svg>
