<svg xmlns="http://www.w3.org/2000/svg" width="41.324" height="41.326" viewBox="0 0 41.324 41.326">
  <g id="Group_41619" data-name="Group 41619" transform="translate(-1143.901 -646.528)">
    <path id="Path_78481" data-name="Path 78481" d="M1143.9,665.578q0-8.581,0-17.161a1.716,1.716,0,0,1,2.281-1.782,1.679,1.679,0,0,1,1.151,1.484,4.918,4.918,0,0,1,.009.591q0,16.73,0,33.461c0,1.547.685,2.237,2.222,2.237q16.757,0,33.515,0a3.439,3.439,0,0,1,.9.085,1.7,1.7,0,0,1,1.23,1.8,1.748,1.748,0,0,1-1.6,1.553c-.107.008-.215,0-.323,0q-16.972,0-33.945,0a5.26,5.26,0,0,1-5.266-4,6.687,6.687,0,0,1-.173-1.595Q1143.891,673.917,1143.9,665.578Z" fill="#185288"/>
    <path id="Path_78482" data-name="Path 78482" d="M1223.1,659.74a12.91,12.91,0,0,1,8.941,3.616c1.116,1.064,2.194,2.168,3.277,3.266a1.69,1.69,0,0,1,0,2.572c-1.094,1.112-2.18,2.234-3.309,3.311a13.021,13.021,0,0,1-17.889.046c-1.159-1.1-2.271-2.244-3.387-3.384a1.64,1.64,0,0,1-.12-2.371c1.464-1.476,2.9-2.995,4.495-4.32A12.419,12.419,0,0,1,1223.1,659.74Zm-8.741,8.182c1.693,1.719,3.257,3.557,5.724,4.161a5.172,5.172,0,0,1,.245-8.467C1217.688,664.312,1216.056,666.131,1214.359,667.922Zm11.653-4.173a5.21,5.21,0,0,1-.015,8.344c2.469-.648,4.049-2.46,5.725-4.182C1230.023,666.186,1228.468,664.354,1226.012,663.749Zm-2.954,2.555a1.609,1.609,0,0,0-.033,3.218,1.609,1.609,0,1,0,.033-3.218Z" transform="translate(-56.735 -11.313)" fill="#185288"/>
    <path id="Path_78483" data-name="Path 78483" d="M1195.511,809.045c0,1.739.014,3.478-.006,5.217a1.7,1.7,0,0,1-3.178.825,2.344,2.344,0,0,1-.244-1.027q-.026-5-.007-10a1.743,1.743,0,0,1,1.4-1.849,1.688,1.688,0,0,1,1.907,1.05,2.618,2.618,0,0,1,.132.893c.012,1.631.006,3.263.006,4.895Z" transform="translate(-41.243 -133.267)" fill="#185288"/>
    <path id="Path_78484" data-name="Path 78484" d="M1239.681,819.913c0-1.4,0-2.8,0-4.2a1.7,1.7,0,0,1,1.736-1.841,1.722,1.722,0,0,1,1.7,1.83q.011,4.222,0,8.444a1.722,1.722,0,1,1-3.438.01C1239.675,822.746,1239.681,821.329,1239.681,819.913Z" transform="translate(-82.007 -143.288)" fill="#185288"/>
    <path id="Path_78485" data-name="Path 78485" d="M1291.16,831.754c0,1.094.006,2.187,0,3.281a1.724,1.724,0,1,1-3.439-.017q-.014-3.28,0-6.561a1.725,1.725,0,1,1,3.439.016C1291.165,829.566,1291.16,830.66,1291.16,831.754Z" transform="translate(-123.135 -154.184)" fill="#185288"/>
    <path id="Path_78486" data-name="Path 78486" d="M1335.49,842.425c0-.843-.008-1.685,0-2.528a1.718,1.718,0,1,1,3.436-.016q.024,2.555,0,5.109a1.718,1.718,0,1,1-3.435-.038C1335.483,844.111,1335.49,843.268,1335.49,842.425Z" transform="translate(-164.04 -164.056)" fill="#185288"/>
    <path id="Path_78487" data-name="Path 78487" d="M1383.393,853.55c0-.592-.014-1.184,0-1.775a1.712,1.712,0,0,1,3.419-.094c.048,1.235.046,2.474,0,3.71a1.7,1.7,0,0,1-1.768,1.6,1.726,1.726,0,0,1-1.654-1.716C1383.382,854.7,1383.393,854.124,1383.393,853.55Z" transform="translate(-205.054 -174.307)" fill="#185288"/>
  </g>
</svg>
