<?xml version="1.0" standalone="yes"?>
<svg xmlns="http://www.w3.org/2000/svg" width="202" height="249">
<path style="fill:#f0f0f0; stroke:none;" d="M0 0L0 249L202 249L202 0L0 0z"/>
<path style="fill:#cecece; stroke:none;" d="M86.6667 42.3333L87.3333 42.6667L86.6667 42.3333z"/>
<path style="fill:#bbbbbb; stroke:none;" d="M86 43L78 76L76 76L80 82L79 78L82.6435 70.8657L89 47C102.108 48.9286 115.267 54.2428 128 57.9082C131.452 58.902 139.091 59.982 140.072 64.1335C142.878 76.0143 129.14 87.3658 134 100L135 100L134 96C136.294 96.031 135.716 95.168 135 93L139.389 83L146 60C128.112 53.1528 105.084 44.6641 86 43z"/>
<path style="fill:#cecece; stroke:none;" d="M90.6667 43.3333L91.3333 43.6667L90.6667 43.3333M93.6667 44.3333L94.3333 44.6667L93.6667 44.3333M85 45L86 46L85 45M97.6667 45.3333L98.3333 45.6667L97.6667 45.3333M101 46L102 47L101 46M89 47L90 48L89 47z"/>
<path style="fill:#f0f0f0; stroke:none;" d="M90 47L76 94L127 109L141 62L90 47z"/>
<path style="fill:#cecece; stroke:none;" d="M91.6667 47.3333L92.3333 47.6667L91.6667 47.3333M103 47L103 48L106 48L103 47M84 48L85 49L84 48M95 48L96 49L95 48M107.667 48.3333L108.333 48.6667L107.667 48.3333M98.6667 49.3333L99.3333 49.6667L98.6667 49.3333M111 49L112 50L111 49M88.3333 50.6667L88.6667 51.3333L88.3333 50.6667M102 50L103 51L102 50M114.667 50.3333L115.333 50.6667L114.667 50.3333M83.3333 51.6667L83.6667 52.3333L83.3333 51.6667M105 51L106 52L105 51M118 51L119 52L118 51M108.667 52.3333L109.333 52.6667L108.667 52.3333M120 52L120 53L123 53L120 52M112 53L113 54L112 53M124.667 53.3333L125.333 53.6667L124.667 53.3333M87 54L88 55L87 54M115.667 54.3333L116.333 54.6667L115.667 54.3333M128 54L129 55L128 54M82 55L83 56L82 55M118 55L118 56L121 56L118 55M131.667 55.3333L132.333 55.6667L131.667 55.3333M122 56L123 57L122 56M134.667 56.3333L135.333 56.6667L134.667 56.3333M125.667 57.3333L126.333 57.6667L125.667 57.3333M138.667 57.3333L139.333 57.6667L138.667 57.3333M81.3333 58.6667L81.6667 59.3333L81.3333 58.6667M129.667 58.3333L130.333 58.6667L129.667 58.3333M141.667 58.3333L142.333 58.6667L141.667 58.3333M132 59L133 60L132 59M145 59L146 60L145 59M85.3333 60.6667L85.6667 61.3333L85.3333 60.6667M135.667 60.3333L136.333 60.6667L135.667 60.3333M80.3333 61.6667L80.6667 62.3333L80.3333 61.6667M105 61L102 64L102 65L107 67L105 61z"/>
<path style="fill:#bbbbbb; stroke:none;" d="M107 61L106 69L100 64L99 74L113 69L107 61z"/>
<path style="fill:#cecece; stroke:none;" d="M139 61L140 62L139 61M145.333 61.6667L145.667 62.3333L145.333 61.6667M108 62L109 63L108 62M84.3333 64.6667L84.6667 65.3333L84.3333 64.6667M84 71L79 91L102 91L101 84C108.752 84 113.63 84.9246 119 79L120 68L110 70C110 72.4358 109.214 71.615 107 71L108 73L105 72L106 74L103 73C103 76.0902 100.623 75.2761 98 75L100 68L99 64L84 71M109 64L110 65L109 64M79 65L80 66L79 65z"/>
<path style="fill:#f0f0f0; stroke:none;" d="M102 65L103 66L102 65z"/>
<path style="fill:#cecece; stroke:none;" d="M140 65L141 66L140 65M144 65L145 66L144 65z"/>
<path style="fill:#f0f0f0; stroke:none;" d="M103 66L104 67L103 66M105 66L106 69L105 66z"/>
<path style="fill:#cecece; stroke:none;" d="M112 66L113 67L112 66z"/>
<path style="fill:#f0f0f0; stroke:none;" d="M98 67L98 70L99 70L98 67z"/>
<path style="fill:#a1a1a1; stroke:none;" d="M112 67L113 68L112 67z"/>
<path style="fill:#cecece; stroke:none;" d="M78.3333 68.6667L78.6667 69.3333L78.3333 68.6667M83 68L84 69L83 68M139 68L140 69L139 68M143.333 68.6667L143.667 69.3333L143.333 68.6667z"/>
<path style="fill:#f0f0f0; stroke:none;" d="M112 69L113 70L112 69z"/>
<path style="fill:#bbbbbb; stroke:none;" d="M119 69L120 70L119 69z"/>
<path style="fill:#cecece; stroke:none;" d="M73 70L74 71L73 70z"/>
<path style="fill:#f0f0f0; stroke:none;" d="M111 70L112 71L111 70M118 70L118 78L119 78L118 70z"/>
<path style="fill:#a1a1a1; stroke:none;" d="M119 70L120 71L119 70z"/>
<path style="fill:#cecece; stroke:none;" d="M120 70L121 71L120 70M69.6667 71.3333L70.3333 71.6667L69.6667 71.3333z"/>
<path style="fill:#a1a1a1; stroke:none;" d="M99 121L99 120C91.3655 117.834 69.1737 115.047 65.2191 107.775C63.4713 104.561 65.51 100.198 66.4213 97C68.8886 88.342 71.972 79.7659 74 71C68.3527 71.834 53.3385 74.2721 50.1937 79.3943C48.1483 82.7257 50.4428 87.6399 51.4244 91L59.2909 118C60.2929 121.482 61.0116 126.739 64.3935 128.806C67.601 130.767 71.8011 128.678 75 127.72C82.918 125.348 90.907 122.675 99 121z"/>
<path style="fill:#cecece; stroke:none;" d="M82.3333 71.6667L82.6667 72.3333L82.3333 71.6667z"/>
<path style="fill:#f0f0f0; stroke:none;" d="M89 71L90 72L89 71M108 71L108 72L111 72L108 71z"/>
<path style="fill:#bbbbbb; stroke:none;" d="M119 71L118 82L126 81L122 71L119 71z"/>
<path style="fill:#cecece; stroke:none;" d="M122.333 71.6667L122.667 72.3333L122.333 71.6667M138.333 71.6667L138.667 72.3333L138.333 71.6667M66 72L67 73L66 72z"/>
<path style="fill:#bbbbbb; stroke:none;" d="M67 72L68 73L67 72z"/>
<path style="fill:#cecece; stroke:none;" d="M77 72L78 73L77 72z"/>
<path style="fill:#f0f0f0; stroke:none;" d="M106.667 72.3333L107.333 72.6667L106.667 72.3333z"/>
<path style="fill:#cecece; stroke:none;" d="M142 72L143 73L142 72M63 73L64 74L63 73z"/>
<path style="fill:#bbbbbb; stroke:none;" d="M64 73L65 74L64 73z"/>
<path style="fill:#cecece; stroke:none;" d="M73 73L74 74L73 73z"/>
<path style="fill:#a1a1a1; stroke:none;" d="M81 73L82 74L81 73z"/>
<path style="fill:#f0f0f0; stroke:none;" d="M98 73L104 75L104 74L98 73M104.667 73.3333L105.333 73.6667L104.667 73.3333z"/>
<path style="fill:#cecece; stroke:none;" d="M59 74L60 75L59 74z"/>
<path style="fill:#bbbbbb; stroke:none;" d="M60.6667 74.3333L61.3333 74.6667L60.6667 74.3333z"/>
<path style="fill:#cecece; stroke:none;" d="M119.333 74.6667L119.667 75.3333L119.333 74.6667M56 75L57 76L56 75z"/>
<path style="fill:#bbbbbb; stroke:none;" d="M57 75L58 76L57 75z"/>
<path style="fill:#cecece; stroke:none;" d="M76 75L77 76L76 75z"/>
<path style="fill:#a1a1a1; stroke:none;" d="M77 75L78 76L77 75z"/>
<path style="fill:#cecece; stroke:none;" d="M81 75L82 76L81 75M123 75L124 76L123 75M137 75L138 76L137 75M52.6667 76.3333L53.3333 76.6667L52.6667 76.3333z"/>
<path style="fill:#bbbbbb; stroke:none;" d="M72 76L73 77L72 76z"/>
<path style="fill:#f0f0f0; stroke:none;" d="M98 76L98 78L100 76L98 76z"/>
<path style="fill:#cecece; stroke:none;" d="M141 76L142 77L141 76z"/>
<path style="fill:#bbbbbb; stroke:none;" d="M51 77L52 78L51 77z"/>
<path style="fill:#cecece; stroke:none;" d="M72 77L73 78L72 77z"/>
<path style="fill:#a1a1a1; stroke:none;" d="M76 77L68 107L127 124C131.157 114.341 133.24 104.301 133 94L132 94L127 110C111.866 103.487 92.3009 97.3984 76 95C77.258 88.5351 80.1771 82.8822 76 77z"/>
<path style="fill:#cecece; stroke:none;" d="M75 78L76 79L75 78z"/>
<path style="fill:#a1a1a1; stroke:none;" d="M79 78L79 81L80 81L79 78z"/>
<path style="fill:#cecece; stroke:none;" d="M136 78L137 79L136 78z"/>
<path style="fill:#bbbbbb; stroke:none;" d="M49 79L50 80L49 79M71 79L72 80L71 79M75.3333 79.6667L75.6667 80.3333L75.3333 79.6667z"/>
<path style="fill:#cecece; stroke:none;" d="M80 79L81 80L80 79M125 79L126 80L125 79M140 79L141 80L140 79M71 80L72 81L71 80z"/>
<path style="fill:#a1a1a1; stroke:none;" d="M125 81L126 82L125 81z"/>
<path style="fill:#cecece; stroke:none;" d="M126 81L123 82L123 83L126 81M135.333 81.6667L135.667 82.3333L135.333 81.6667M74 82L75 83L74 82M79 82L80 83L79 82M118 82L118 83L122 83L118 82M139.333 82.6667L139.667 83.3333L139.333 82.6667z"/>
<path style="fill:#bbbbbb; stroke:none;" d="M70 83L71 84L70 83M74 83L75 84L74 83M49 84L50 85L49 84z"/>
<path style="fill:#cecece; stroke:none;" d="M109 87L113 95L93 97L93 98L127 107L130 87L131 87L131 89L132 89L133 84L129 84L130 87C124.056 81.7542 116.259 86.9792 109 87M49 85L50 86L49 85M73 85L74 86L73 85z"/>
<path style="fill:#bbbbbb; stroke:none;" d="M78 85L79 86L78 85M69 86L70 87L69 86M73 86L74 87L73 86z"/>
<path style="fill:#cecece; stroke:none;" d="M78 86L79 87L78 86M138 86L139 87L138 86z"/>
<path style="fill:#bbbbbb; stroke:none;" d="M50 87L51 88L50 87z"/>
<path style="fill:#cecece; stroke:none;" d="M69 87L70 88L69 87z"/>
<path style="fill:#bbbbbb; stroke:none;" d="M77.3333 87.6667L77.6667 88.3333L77.3333 87.6667z"/>
<path style="fill:#cecece; stroke:none;" d="M50 88L51 89L50 88M133 88L134 89L133 88z"/>
<path style="fill:#bbbbbb; stroke:none;" d="M68 89L69 90L68 89M72.3333 89.6667L72.6667 90.3333L72.3333 89.6667z"/>
<path style="fill:#cecece; stroke:none;" d="M77 89L78 90L77 89M137.333 89.6667L137.667 90.3333L137.333 89.6667M68 90L69 91L68 90z"/>
<path style="fill:#a1a1a1; stroke:none;" d="M133 90L134 91L133 90z"/>
<path style="fill:#bbbbbb; stroke:none;" d="M51 91L52 92L51 91z"/>
<path style="fill:#cecece; stroke:none;" d="M132 91L133 92L132 91z"/>
<path style="fill:#a1a1a1; stroke:none;" d="M136 91L137 92L136 91z"/>
<path style="fill:#cecece; stroke:none;" d="M51 92L52 93L51 92M71 92L72 93L71 92M76 92L77 93L76 92z"/>
<path style="fill:#bbbbbb; stroke:none;" d="M67 93L68 94L67 93M71 93L72 94L71 93z"/>
<path style="fill:#a1a1a1; stroke:none;" d="M135 93L136 94L135 93z"/>
<path style="fill:#cecece; stroke:none;" d="M136 93L137 94L136 93z"/>
<path style="fill:#bbbbbb; stroke:none;" d="M52 94L53 95L52 94z"/>
<path style="fill:#cecece; stroke:none;" d="M67 94L68 95L67 94z"/>
<path style="fill:#bbbbbb; stroke:none;" d="M76 94L77 95L76 94z"/>
<path style="fill:#cecece; stroke:none;" d="M52.3333 95.6667L52.6667 96.3333L52.3333 95.6667M70 95L71 96L70 95z"/>
<path style="fill:#bbbbbb; stroke:none;" d="M79 95L80 96L79 95z"/>
<path style="fill:#cecece; stroke:none;" d="M80 95L81 96L80 95M131 95L132 96L131 95z"/>
<path style="fill:#bbbbbb; stroke:none;" d="M66 96L67 97L66 96M70 96L71 97L70 96M82 96L83 97L82 96z"/>
<path style="fill:#cecece; stroke:none;" d="M83 96L84 97L83 96z"/>
<path style="fill:#a1a1a1; stroke:none;" d="M134.333 96.6667L134.667 97.3333L134.333 96.6667z"/>
<path style="fill:#bbbbbb; stroke:none;" d="M53.3333 97.6667L53.6667 98.3333L53.3333 97.6667z"/>
<path style="fill:#cecece; stroke:none;" d="M66 97L67 98L66 97z"/>
<path style="fill:#bbbbbb; stroke:none;" d="M86 97L87 98L86 97z"/>
<path style="fill:#cecece; stroke:none;" d="M87 97L88 98L87 97z"/>
<path style="fill:#bbbbbb; stroke:none;" d="M89 98L90 99L89 98z"/>
<path style="fill:#cecece; stroke:none;" d="M90 98L91 99L90 98M130 98L131 99L130 98M53 99L54 100L53 99M69 99L70 100L69 99z"/>
<path style="fill:#bbbbbb; stroke:none;" d="M92 99L93 100L92 99z"/>
<path style="fill:#cecece; stroke:none;" d="M93 99L94 100L93 99z"/>
<path style="fill:#bbbbbb; stroke:none;" d="M130 99L131 100L130 99M65 100L66 101L65 100M96 100L97 101L96 100z"/>
<path style="fill:#cecece; stroke:none;" d="M97 100L98 101L97 100M134 100L135 101L134 100z"/>
<path style="fill:#bbbbbb; stroke:none;" d="M54 101L55 102L54 101z"/>
<path style="fill:#cecece; stroke:none;" d="M65 101L66 102L65 101z"/>
<path style="fill:#bbbbbb; stroke:none;" d="M99 101L100 102L99 101z"/>
<path style="fill:#cecece; stroke:none;" d="M100 101L101 102L100 101M129 101L130 102L129 101M54 102L55 103L54 102M68 102L69 103L68 102z"/>
<path style="fill:#bbbbbb; stroke:none;" d="M102 102L103 103L102 102z"/>
<path style="fill:#cecece; stroke:none;" d="M103 102L104 103L103 102z"/>
<path style="fill:#bbbbbb; stroke:none;" d="M129.333 102.667L129.667 103.333L129.333 102.667M133 102L134 103L133 102M64 103L65 104L64 103M68 103L69 104L68 103M106 103L107 104L106 103z"/>
<path style="fill:#cecece; stroke:none;" d="M107 103L108 104L107 103M133 103L134 104L133 103M64 104L65 105L64 104z"/>
<path style="fill:#bbbbbb; stroke:none;" d="M109 104L110 105L109 104z"/>
<path style="fill:#cecece; stroke:none;" d="M110 104L111 105L110 104M55.3333 105.667L55.6667 106.333L55.3333 105.667z"/>
<path style="fill:#bbbbbb; stroke:none;" d="M113 105L114 106L113 105z"/>
<path style="fill:#cecece; stroke:none;" d="M114 105L115 106L114 105M128 105L129 106L128 105z"/>
<path style="fill:#bbbbbb; stroke:none;" d="M132.333 105.667L132.667 106.333L132.333 105.667M116 106L117 107L116 106z"/>
<path style="fill:#cecece; stroke:none;" d="M117 106L118 107L117 106z"/>
<path style="fill:#bbbbbb; stroke:none;" d="M128 106L129 107L128 106z"/>
<path style="fill:#cecece; stroke:none;" d="M64 107L65 108L64 107M68 107L69 108L68 107z"/>
<path style="fill:#bbbbbb; stroke:none;" d="M69 107L70 108L69 107M119 107L120 108L119 107z"/>
<path style="fill:#cecece; stroke:none;" d="M120 107L121 108L120 107M132 107L133 108L132 107z"/>
<path style="fill:#bbbbbb; stroke:none;" d="M56 108L57 109L56 108z"/>
<path style="fill:#cecece; stroke:none;" d="M72 108L73 109L72 108z"/>
<path style="fill:#bbbbbb; stroke:none;" d="M73 108L74 109L73 108M123 108L124 109L123 108z"/>
<path style="fill:#cecece; stroke:none;" d="M124 108L125 109L124 108M127 108L128 109L127 108M56 109L57 110L56 109z"/>
<path style="fill:#bbbbbb; stroke:none;" d="M65 109L66 110L65 109z"/>
<path style="fill:#cecece; stroke:none;" d="M75 109L76 110L75 109z"/>
<path style="fill:#bbbbbb; stroke:none;" d="M76 109L77 110L76 109M126 109L127 110L126 109M131 109L132 110L131 109z"/>
<path style="fill:#cecece; stroke:none;" d="M67 110L68 111L67 110M79 110L80 111L79 110M131 110L132 111L131 110z"/>
<path style="fill:#bbbbbb; stroke:none;" d="M57 111L58 112L57 111M70 111L71 112L70 111z"/>
<path style="fill:#cecece; stroke:none;" d="M71 111L72 112L71 111M82 111L83 112L82 111z"/>
<path style="fill:#bbbbbb; stroke:none;" d="M83 111L84 112L83 111z"/>
<path style="fill:#cecece; stroke:none;" d="M57.3333 112.667L57.6667 113.333L57.3333 112.667z"/>
<path style="fill:#bbbbbb; stroke:none;" d="M73 112L74 113L73 112z"/>
<path style="fill:#cecece; stroke:none;" d="M74 112L75 113L74 112z"/>
<path style="fill:#bbbbbb; stroke:none;" d="M86 112L87 113L86 112z"/>
<path style="fill:#cecece; stroke:none;" d="M77.6667 113.333L78.3333 113.667L77.6667 113.333M89 113L90 114L89 113z"/>
<path style="fill:#bbbbbb; stroke:none;" d="M90 113L91 114L90 113M130 113L131 114L130 113M80 114L81 115L80 114z"/>
<path style="fill:#cecece; stroke:none;" d="M81 114L82 115L81 114M92 114L93 115L92 114z"/>
<path style="fill:#bbbbbb; stroke:none;" d="M93 114L94 115L93 114z"/>
<path style="fill:#cecece; stroke:none;" d="M130 114L131 115L130 114z"/>
<path style="fill:#bbbbbb; stroke:none;" d="M58 115L59 116L58 115M83 115L84 116L83 115z"/>
<path style="fill:#cecece; stroke:none;" d="M84 115L85 116L84 115M96 115L97 116L96 115M58 116L59 117L58 116z"/>
<path style="fill:#bbbbbb; stroke:none;" d="M87 116L88 117L87 116z"/>
<path style="fill:#cecece; stroke:none;" d="M88 116L89 117L88 116M99 116L100 117L99 116z"/>
<path style="fill:#bbbbbb; stroke:none;" d="M100 116L101 117L100 116M129 116L130 117L129 116M90 117L91 118L90 117z"/>
<path style="fill:#cecece; stroke:none;" d="M91 117L92 118L91 117z"/>
<path style="fill:#bbbbbb; stroke:none;" d="M103 117L104 118L103 117z"/>
<path style="fill:#cecece; stroke:none;" d="M129 117L130 118L129 117z"/>
<path style="fill:#bbbbbb; stroke:none;" d="M59 118L60 119L59 118M93.6667 118.333L94.3333 118.667L93.6667 118.333z"/>
<path style="fill:#cecece; stroke:none;" d="M95 118L96 119L95 118M106 118L107 119L106 118M59 119L60 120L59 119z"/>
<path style="fill:#bbbbbb; stroke:none;" d="M97 119L98 120L97 119z"/>
<path style="fill:#cecece; stroke:none;" d="M98 119L99 120L98 119M109 119L110 120L109 119z"/>
<path style="fill:#bbbbbb; stroke:none;" d="M110 119L111 120L110 119M99 120L100 121L99 120z"/>
<path style="fill:#cecece; stroke:none;" d="M100 120L101 121L100 120M113 120L114 121L113 120z"/>
<path style="fill:#bbbbbb; stroke:none;" d="M114 120L115 121L114 120M128 120L129 121L128 120M96 121L97 122L96 121z"/>
<path style="fill:#cecece; stroke:none;" d="M97 121L98 122L97 121M116 121L117 122L116 121z"/>
<path style="fill:#bbbbbb; stroke:none;" d="M117 121L118 122L117 121z"/>
<path style="fill:#cecece; stroke:none;" d="M128 121L129 122L128 121M60.3333 122.667L60.6667 123.333L60.3333 122.667z"/>
<path style="fill:#bbbbbb; stroke:none;" d="M92 122L93 123L92 122z"/>
<path style="fill:#cecece; stroke:none;" d="M93.6667 122.333L94.3333 122.667L93.6667 122.333z"/>
<path style="fill:#bbbbbb; stroke:none;" d="M120.667 122.333L121.333 122.667L120.667 122.333M89 123L90 124L89 123z"/>
<path style="fill:#cecece; stroke:none;" d="M90 123L91 124L90 123M123 123L124 124L123 123z"/>
<path style="fill:#bbbbbb; stroke:none;" d="M124 123L125 124L124 123M127 123L128 124L127 123M86 124L87 125L86 124z"/>
<path style="fill:#cecece; stroke:none;" d="M87 124L88 125L87 124z"/>
<path style="fill:#bbbbbb; stroke:none;" d="M61 125L62 126L61 125M82 125L83 126L82 125z"/>
<path style="fill:#cecece; stroke:none;" d="M83 125L84 126L83 125M61 126L62 127L61 126z"/>
<path style="fill:#bbbbbb; stroke:none;" d="M79 126L80 127L79 126z"/>
<path style="fill:#cecece; stroke:none;" d="M80 126L81 127L80 126z"/>
<path style="fill:#bbbbbb; stroke:none;" d="M62 127L63 128L62 127M75 127L76 128L75 127z"/>
<path style="fill:#cecece; stroke:none;" d="M76.6667 127.333L77.3333 127.667L76.6667 127.333z"/>
<path style="fill:#bbbbbb; stroke:none;" d="M72 128L73 129L72 128z"/>
<path style="fill:#cecece; stroke:none;" d="M73 128L74 129L73 128z"/>
<path style="fill:#bbbbbb; stroke:none;" d="M64 129L65 130L64 129M69 129L70 130L69 129z"/>
<path style="fill:#cecece; stroke:none;" d="M70 129L71 130L70 129M66 130L67 131L66 130M51 163L52 178L54 178L55 169L54 169L54 177L52 177L51 163z"/>
<path style="fill:#747474; stroke:none;" d="M52 163L52 177L54 177L54 168L55 168C56.7971 172.161 58.5031 175.616 63 177L62 163L61 163L60 172L59 172L54 163L52 163z"/>
<path style="fill:#bbbbbb; stroke:none;" d="M54 163L55 164L54 163z"/>
<path style="fill:#a1a1a1; stroke:none;" d="M60 163L61 164L60 163M62 163L62 176L63 176L62 163z"/>
<path style="fill:#cecece; stroke:none;" d="M68 163L69 164L68 163z"/>
<path style="fill:#a1a1a1; stroke:none;" d="M69 163L70 164L69 163z"/>
<path style="fill:#747474; stroke:none;" d="M70.0586 163.786C62.4669 166.449 66.4014 179.927 74.7863 176.254C81.8592 173.156 77.4927 161.179 70.0586 163.786z"/>
<path style="fill:#a1a1a1; stroke:none;" d="M74 163L75 164L74 163z"/>
<path style="fill:#cecece; stroke:none;" d="M75 163L76 164L75 163z"/>
<path style="fill:#bbbbbb; stroke:none;" d="M86 163L87 164L86 163z"/>
<path style="fill:#747474; stroke:none;" d="M87 163L87 177L89 177L89 163L87 163z"/>
<path style="fill:#cecece; stroke:none;" d="M89 163L89 177L90 177L89 163z"/>
<path style="fill:#747474; stroke:none;" d="M92 163L92 177L94 177L94 167L95 167L97 177C101.317 175.737 101.239 170.966 102 167L103 167L103 177L105 177L105 163L101 163L99 172L96 163L92 163z"/>
<path style="fill:#cecece; stroke:none;" d="M105 163L105 176L106 176L105 163z"/>
<path style="fill:#a1a1a1; stroke:none;" d="M112 163L113 164L112 163z"/>
<path style="fill:#747474; stroke:none;" d="M113 163L107 177L110 174L120 177L115 163L113 163z"/>
<path style="fill:#cecece; stroke:none;" d="M115 163L116 164L115 163M125 163L126 164L125 163z"/>
<path style="fill:#a1a1a1; stroke:none;" d="M126 163L127 164L126 163z"/>
<path style="fill:#747474; stroke:none;" d="M135 170L129 170L129 172L133 172C125.973 179.065 121.564 163.52 134 167C130.191 160.486 121.107 164.646 122.667 171.956C124.395 180.061 134.452 177.092 135 170z"/>
<path style="fill:#a1a1a1; stroke:none;" d="M131 163L132 164L131 163z"/>
<path style="fill:#cecece; stroke:none;" d="M132 163L133 164L132 163M137 163L137 176L138 176L137 163z"/>
<path style="fill:#747474; stroke:none;" d="M138 163L138 177L148 177L148 175L140 175L140 171L147 171L147 169L140 169L140 165L148 165L138 163z"/>
<path style="fill:#a1a1a1; stroke:none;" d="M147 163L148 164L147 163z"/>
<path style="fill:#cecece; stroke:none;" d="M55 164L56 165L55 164z"/>
<path style="fill:#bbbbbb; stroke:none;" d="M67 164L68 165L67 164M76 164L77 165L76 164z"/>
<path style="fill:#a1a1a1; stroke:none;" d="M86 164L86 177L87 177L86 164z"/>
<path style="fill:#bbbbbb; stroke:none;" d="M96 164L97 165L96 164z"/>
<path style="fill:#cecece; stroke:none;" d="M100 164L101 165L100 164M111 164L112 165L111 164z"/>
<path style="fill:#a1a1a1; stroke:none;" d="M115 164L116 165L115 164z"/>
<path style="fill:#bbbbbb; stroke:none;" d="M124 164L125 165L124 164M133 164L134 165L133 164z"/>
<path style="fill:#a1a1a1; stroke:none;" d="M55 165L56 166L55 165z"/>
<path style="fill:#bbbbbb; stroke:none;" d="M66 165L67 166L66 165z"/>
<path style="fill:#a1a1a1; stroke:none;" d="M70 165L71 166L70 165z"/>
<path style="fill:#bbbbbb; stroke:none;" d="M71.6667 165.333L72.3333 165.667L71.6667 165.333z"/>
<path style="fill:#a1a1a1; stroke:none;" d="M73 165L74 166L73 165z"/>
<path style="fill:#bbbbbb; stroke:none;" d="M77 165L78 166L77 165z"/>
<path style="fill:#a1a1a1; stroke:none;" d="M96 165L97 166L96 165z"/>
<path style="fill:#bbbbbb; stroke:none;" d="M100 165L101 166L100 165z"/>
<path style="fill:#a1a1a1; stroke:none;" d="M111 165L112 166L111 165z"/>
<path style="fill:#cecece; stroke:none;" d="M116 165L117 166L116 165z"/>
<path style="fill:#a1a1a1; stroke:none;" d="M123 165L124 166L123 165M127 165L128 166L127 165z"/>
<path style="fill:#bbbbbb; stroke:none;" d="M128.667 165.333L129.333 165.667L128.667 165.333z"/>
<path style="fill:#a1a1a1; stroke:none;" d="M130 165L131 166L130 165z"/>
<path style="fill:#cecece; stroke:none;" d="M134 165L135 166L134 165z"/>
<path style="fill:#a1a1a1; stroke:none;" d="M140 165L141 166L140 165z"/>
<path style="fill:#bbbbbb; stroke:none;" d="M141 165L142 166L141 165z"/>
<path style="fill:#a1a1a1; stroke:none;" d="M142 165L142 166L147 166L142 165z"/>
<path style="fill:#bbbbbb; stroke:none;" d="M147 165L148 166L147 165M56 166L57 167L56 166M69 166L70 167L69 166z"/>
<path style="fill:#f0f0f0; stroke:none;" d="M70.5887 167.086C67.749 169.062 69.9192 175.556 73.5818 173.673C77.399 171.711 74.2246 164.557 70.5887 167.086z"/>
<path style="fill:#cecece; stroke:none;" d="M74 166L75 167L74 166M78 166L79 167L78 166z"/>
<path style="fill:#a1a1a1; stroke:none;" d="M100 166L101 167L100 166M116 166L117 167L116 166z"/>
<path style="fill:#cecece; stroke:none;" d="M122 166L123 167L122 166M126 166L127 167L126 166z"/>
<path style="fill:#bbbbbb; stroke:none;" d="M131 166L132 167L131 166z"/>
<path style="fill:#a1a1a1; stroke:none;" d="M134 166L135 167L134 166z"/>
<path style="fill:#bbbbbb; stroke:none;" d="M140.333 166.667L140.667 167.333L140.333 166.667z"/>
<path style="fill:#cecece; stroke:none;" d="M65 167L66 168L65 167z"/>
<path style="fill:#a1a1a1; stroke:none;" d="M68 167L69 168L68 167z"/>
<path style="fill:#bbbbbb; stroke:none;" d="M75 167L76 168L75 167M78 167L79 168L78 167z"/>
<path style="fill:#a1a1a1; stroke:none;" d="M94 167L95 168L94 167z"/>
<path style="fill:#cecece; stroke:none;" d="M97 167L98 168L97 167z"/>
<path style="fill:#a1a1a1; stroke:none;" d="M102 167L103 168L102 167z"/>
<path style="fill:#cecece; stroke:none;" d="M110 167L111 168L110 167z"/>
<path style="fill:#bbbbbb; stroke:none;" d="M113 167L115 169L113 167z"/>
<path style="fill:#a1a1a1; stroke:none;" d="M122.333 167.667L122.667 168.333L122.333 167.667z"/>
<path style="fill:#bbbbbb; stroke:none;" d="M125 167L126 168L125 167M132 167L133 168L132 167z"/>
<path style="fill:#cecece; stroke:none;" d="M133.667 167.333L134.333 167.667L133.667 167.333z"/>
<path style="fill:#a1a1a1; stroke:none;" d="M54 168L55 169L54 168M57 168L58 169L57 168M65 168L65 172L66 172L65 168z"/>
<path style="fill:#cecece; stroke:none;" d="M68 168L68 172L69 172L68 168M75 168L76 169L75 168z"/>
<path style="fill:#a1a1a1; stroke:none;" d="M78 168L79 169L78 168z"/>
<path style="fill:#bbbbbb; stroke:none;" d="M94 168L94 177L95 177L94 168M97 168L98 169L97 168z"/>
<path style="fill:#cecece; stroke:none;" d="M99 168L100 169L99 168M102 168L102 177L103 177L102 168z"/>
<path style="fill:#a1a1a1; stroke:none;" d="M110 168L111 169L110 168z"/>
<path style="fill:#f0f0f0; stroke:none;" d="M113 168L115 171L113 168z"/>
<path style="fill:#bbbbbb; stroke:none;" d="M117 168L118 169L117 168z"/>
<path style="fill:#a1a1a1; stroke:none;" d="M140 168L141 169L140 168z"/>
<path style="fill:#cecece; stroke:none;" d="M141 168L141 169L148 169L141 168z"/>
<path style="fill:#a1a1a1; stroke:none;" d="M55 169L56 170L55 169z"/>
<path style="fill:#cecece; stroke:none;" d="M58 169L59 170L58 169z"/>
<path style="fill:#a1a1a1; stroke:none;" d="M95 169L96 170L95 169M97 169L98 170L97 169z"/>
<path style="fill:#bbbbbb; stroke:none;" d="M99 169L100 170L99 169z"/>
<path style="fill:#a1a1a1; stroke:none;" d="M101.333 169.667L101.667 170.333L101.333 169.667z"/>
<path style="fill:#cecece; stroke:none;" d="M109 169L110 170L109 169z"/>
<path style="fill:#a1a1a1; stroke:none;" d="M112 169L113 170L112 169z"/>
<path style="fill:#cecece; stroke:none;" d="M114 169L115 170L114 169z"/>
<path style="fill:#a1a1a1; stroke:none;" d="M117 169L118 170L117 169z"/>
<path style="fill:#cecece; stroke:none;" d="M129 169L129 170L135 170L129 169z"/>
<path style="fill:#bbbbbb; stroke:none;" d="M147.333 169.667L147.667 170.333L147.333 169.667z"/>
<path style="fill:#a1a1a1; stroke:none;" d="M58 170L59 171L58 170M99 170L100 171L99 170z"/>
<path style="fill:#bbbbbb; stroke:none;" d="M109 170L110 171L109 170z"/>
<path style="fill:#cecece; stroke:none;" d="M112 170L115 172L115 171L112 170z"/>
<path style="fill:#a1a1a1; stroke:none;" d="M115.333 170.667L115.667 171.333L115.333 170.667z"/>
<path style="fill:#cecece; stroke:none;" d="M118 170L119 171L118 170M135 170L135 175L136 175L135 170z"/>
<path style="fill:#a1a1a1; stroke:none;" d="M56 171L57 172L56 171z"/>
<path style="fill:#bbbbbb; stroke:none;" d="M59 171L60 172L59 171z"/>
<path style="fill:#cecece; stroke:none;" d="M95 171L96 172L95 171z"/>
<path style="fill:#bbbbbb; stroke:none;" d="M98 171L99 172L98 171M101 171L102 172L101 171z"/>
<path style="fill:#a1a1a1; stroke:none;" d="M118 171L119 172L118 171z"/>
<path style="fill:#bbbbbb; stroke:none;" d="M140 171L140 175L141 175L140 171M65 172L66 173L65 172M68 172L69 173L68 172M75 172L76 173L75 172z"/>
<path style="fill:#a1a1a1; stroke:none;" d="M78 172L79 173L78 172z"/>
<path style="fill:#cecece; stroke:none;" d="M108 172L109 173L108 172z"/>
<path style="fill:#a1a1a1; stroke:none;" d="M122 172L123 173L122 172z"/>
<path style="fill:#cecece; stroke:none;" d="M125 172L126 173L125 172M129.667 172.333L130.333 172.667L129.667 172.333z"/>
<path style="fill:#a1a1a1; stroke:none;" d="M132.333 172.667L132.667 173.333L132.333 172.667z"/>
<path style="fill:#cecece; stroke:none;" d="M57 173L58 174L57 173M65 173L66 174L65 173M69 173L70 174L69 173M78 173L79 174L78 173z"/>
<path style="fill:#a1a1a1; stroke:none;" d="M96 173L97 174L96 173M108 173L109 174L108 173z"/>
<path style="fill:#bbbbbb; stroke:none;" d="M119 173L120 174L119 173z"/>
<path style="fill:#cecece; stroke:none;" d="M122 173L123 174L122 173z"/>
<path style="fill:#a1a1a1; stroke:none;" d="M125 173L126 174L125 173M58 174L59 175L58 174M66 174L67 175L66 174z"/>
<path style="fill:#cecece; stroke:none;" d="M70 174L71 175L70 174M73 174L74 175L73 174z"/>
<path style="fill:#a1a1a1; stroke:none;" d="M74 174L75 175L74 174M77 174L78 175L77 174z"/>
<path style="fill:#bbbbbb; stroke:none;" d="M96 174L97 175L96 174z"/>
<path style="fill:#a1a1a1; stroke:none;" d="M100 174L101 175L100 174z"/>
<path style="fill:#cecece; stroke:none;" d="M107 174L108 175L107 174z"/>
<path style="fill:#a1a1a1; stroke:none;" d="M110 174L111 175L110 174z"/>
<path style="fill:#cecece; stroke:none;" d="M116 174L117 175L116 174z"/>
<path style="fill:#a1a1a1; stroke:none;" d="M126 174L127 175L126 174z"/>
<path style="fill:#cecece; stroke:none;" d="M127 174L128 175L127 174M130 174L131 175L130 174z"/>
<path style="fill:#a1a1a1; stroke:none;" d="M131 174L132 175L131 174z"/>
<path style="fill:#cecece; stroke:none;" d="M142 174L142 175L148 175L142 174M58 175L59 176L58 175M77 175L78 176L77 175M96 175L97 176L96 175z"/>
<path style="fill:#bbbbbb; stroke:none;" d="M100 175L101 176L100 175M107 175L108 176L107 175M110 175L111 176L110 175z"/>
<path style="fill:#cecece; stroke:none;" d="M120 175L121 176L120 175M123 175L124 176L123 175z"/>
<path style="fill:#a1a1a1; stroke:none;" d="M134 175L135 176L134 175z"/>
<path style="fill:#cecece; stroke:none;" d="M148.333 175.667L148.667 176.333L148.333 175.667z"/>
<path style="fill:#bbbbbb; stroke:none;" d="M59 176L60 177L59 176z"/>
<path style="fill:#a1a1a1; stroke:none;" d="M68 176L69 177L68 176M75 176L76 177L75 176z"/>
<path style="fill:#cecece; stroke:none;" d="M91 176L92 177L91 176M100 176L101 177L100 176z"/>
<path style="fill:#bbbbbb; stroke:none;" d="M105 176L106 177L105 176M117 176L118 177L117 176z"/>
<path style="fill:#a1a1a1; stroke:none;" d="M120 176L121 177L120 176M125 176L126 177L125 176M132 176L133 177L132 176z"/>
<path style="fill:#bbbbbb; stroke:none;" d="M133 176L134 177L133 176M137 176L138 177L137 176z"/>
<path style="fill:#cecece; stroke:none;" d="M60 177L60 178L63 178L60 177M70 177L71 178L70 177z"/>
<path style="fill:#bbbbbb; stroke:none;" d="M71.6667 177.333L72.3333 177.667L71.6667 177.333z"/>
<path style="fill:#cecece; stroke:none;" d="M73.6667 177.333L74.3333 177.667L73.6667 177.333M87.6667 177.333L88.3333 177.667L87.6667 177.333M92.6667 177.333L93.3333 177.667L92.6667 177.333M97 177L97 178L100 178L97 177M103.667 177.333L104.333 177.667L103.667 177.333M107 177L107 178L110 178L107 177M118 177L118 178L121 178L118 177M126.667 177.333L127.333 177.667L126.667 177.333z"/>
<path style="fill:#bbbbbb; stroke:none;" d="M128.667 177.333L129.333 177.667L128.667 177.333z"/>
<path style="fill:#cecece; stroke:none;" d="M130.667 177.333L131.333 177.667L130.667 177.333M138 177L138 178L148 178L138 177M51 187L51 188L54 188L51 187M58 187L58 188L62 189L62 188L58 187M67 188L67 189L71 188L67 188M74 188L74 189L79 189L74 188M84 200L85 200C85 195.614 83.9671 190.615 88 188C82.4301 186.749 84 196.5 84 200M91.6667 187.333L92.3333 187.667L91.6667 187.333M106 187L106 188L110 188L106 187M116 202L117 202L117 188L125 188C114.632 183.66 116 195.298 116 202M130 202L131 202C131 197.255 129.6 190.853 134 188C128.134 186.682 130 198.357 130 202M142 202L143 202L143 188L153 188C141.441 183.149 142 193.913 142 202z"/>
<path style="fill:#a1a1a1; stroke:none;" d="M50 188L51 189L50 188z"/>
<path style="fill:#747474; stroke:none;" d="M46 201C51.1651 198.693 52.8478 198.531 58 201L54 188C48.5772 189.708 47.3786 195.949 46 201M58 188C59.8411 192.773 60.7223 199.291 66 201L70 188L64 198C62.8274 193.87 62.3941 189.529 58 188z"/>
<path style="fill:#a1a1a1; stroke:none;" d="M70 188L71 189L70 188z"/>
<path style="fill:#747474; stroke:none;" d="M75 188L70 202L73 198L83 202L78 188L75 188M85 188L85 201L87 201L87 188L85 188z"/>
<path style="fill:#a1a1a1; stroke:none;" d="M87 188L85 201L85 202C89.1518 199.308 88.7831 192.249 87 188z"/>
<path style="fill:#bbbbbb; stroke:none;" d="M90 188L90 201L91 201L90 188z"/>
<path style="fill:#747474; stroke:none;" d="M91 188L91 201L100 201L100 200L93 200L93 188L91 188z"/>
<path style="fill:#bbbbbb; stroke:none;" d="M93 188L93 198L94 198L93 188z"/>
<path style="fill:#a1a1a1; stroke:none;" d="M106 188L107 189L106 188z"/>
<path style="fill:#747474; stroke:none;" d="M107 188L103 202C106.946 197.697 109.14 198.83 114 201L109 188L107 188z"/>
<path style="fill:#a1a1a1; stroke:none;" d="M109 188L110 189L109 188z"/>
<path style="fill:#747474; stroke:none;" d="M117 188L117 202C119.609 201.379 124.304 201.708 126.379 199.972C134.085 193.526 121.814 188.004 117 188z"/>
<path style="fill:#cecece; stroke:none;" d="M126 188L127 189L126 188z"/>
<path style="fill:#747474; stroke:none;" d="M131 188L131 202L140 201L140 200C132.536 199.431 133.001 194.25 133 188L131 188z"/>
<path style="fill:#a1a1a1; stroke:none;" d="M133 188L133 199L134 199L133 188z"/>
<path style="fill:#747474; stroke:none;" d="M143 188L143 201L153 202L145 200L145 195L152 193C148.383 193.599 146.806 193.249 145 190L153 190L153 188L143 188z"/>
<path style="fill:#cecece; stroke:none;" d="M49 189L50 190L49 189M54 189L55 190L54 189z"/>
<path style="fill:#bbbbbb; stroke:none;" d="M58 189L59 190L58 189M61 189L62 190L61 189z"/>
<path style="fill:#a1a1a1; stroke:none;" d="M67 189L68 190L67 189z"/>
<path style="fill:#cecece; stroke:none;" d="M70 189L71 190L70 189z"/>
<path style="fill:#a1a1a1; stroke:none;" d="M74 189L75 190L74 189M78 189L79 190L78 189z"/>
<path style="fill:#cecece; stroke:none;" d="M105 189L106 190L105 189M110 189L111 190L110 189M127 189L128 190L127 189z"/>
<path style="fill:#bbbbbb; stroke:none;" d="M49 190L50 191L49 190z"/>
<path style="fill:#a1a1a1; stroke:none;" d="M54 190L55 191L54 190z"/>
<path style="fill:#cecece; stroke:none;" d="M58 190L59 191L58 190M73 190L74 191L73 190z"/>
<path style="fill:#a1a1a1; stroke:none;" d="M105 190L106 191L105 190M110 190L111 191L110 190z"/>
<path style="fill:#bbbbbb; stroke:none;" d="M119 190L119 193L120 193L119 190z"/>
<path style="fill:#f0f0f0; stroke:none;" d="M120 190L120 193L125 192L120 190z"/>
<path style="fill:#bbbbbb; stroke:none;" d="M124 190L125 191L124 190z"/>
<path style="fill:#a1a1a1; stroke:none;" d="M127.333 190.667L127.667 191.333L127.333 190.667z"/>
<path style="fill:#bbbbbb; stroke:none;" d="M145 190L145 193L146 193L145 190z"/>
<path style="fill:#a1a1a1; stroke:none;" d="M52 191L53 192L52 191M59 191L60 192L59 191z"/>
<path style="fill:#cecece; stroke:none;" d="M62 191L63 192L62 191M66 191L67 192L66 191z"/>
<path style="fill:#a1a1a1; stroke:none;" d="M69 191L70 192L69 191z"/>
<path style="fill:#bbbbbb; stroke:none;" d="M73 191L74 192L73 191z"/>
<path style="fill:#a1a1a1; stroke:none;" d="M76 191L77 192L76 191z"/>
<path style="fill:#bbbbbb; stroke:none;" d="M79 191L80 192L79 191z"/>
<path style="fill:#a1a1a1; stroke:none;" d="M108 191L109 192L108 191z"/>
<path style="fill:#cecece; stroke:none;" d="M48 192L49 193L48 192z"/>
<path style="fill:#bbbbbb; stroke:none;" d="M51 192L52 193L51 192z"/>
<path style="fill:#cecece; stroke:none;" d="M52 192L51 194L52 192z"/>
<path style="fill:#bbbbbb; stroke:none;" d="M55 192L56 193L55 192M59 192L60 193L59 192M62 192L63 193L62 192z"/>
<path style="fill:#a1a1a1; stroke:none;" d="M66 192L67 193L66 192z"/>
<path style="fill:#cecece; stroke:none;" d="M69 192L70 193L69 192z"/>
<path style="fill:#f0f0f0; stroke:none;" d="M76 192L75 196L78 196L78 195L76 192z"/>
<path style="fill:#a1a1a1; stroke:none;" d="M79 192L80 193L79 192z"/>
<path style="fill:#bbbbbb; stroke:none;" d="M104 192L105 193L104 192z"/>
<path style="fill:#cecece; stroke:none;" d="M107 192L108 193L107 192z"/>
<path style="fill:#bbbbbb; stroke:none;" d="M108 192L109 193L108 192z"/>
<path style="fill:#cecece; stroke:none;" d="M111 192L112 193L111 192M124 192L125 193L124 192z"/>
<path style="fill:#bbbbbb; stroke:none;" d="M127 192L128 193L127 192z"/>
<path style="fill:#a1a1a1; stroke:none;" d="M48 193L49 194L48 193z"/>
<path style="fill:#f0f0f0; stroke:none;" d="M52 193L51 196L52 193z"/>
<path style="fill:#a1a1a1; stroke:none;" d="M68 193L69 194L68 193z"/>
<path style="fill:#cecece; stroke:none;" d="M72 193L73 194L72 193z"/>
<path style="fill:#bbbbbb; stroke:none;" d="M75 193L76 194L75 193z"/>
<path style="fill:#a1a1a1; stroke:none;" d="M77 193L78 194L77 193z"/>
<path style="fill:#cecece; stroke:none;" d="M80 193L81 194L80 193z"/>
<path style="fill:#a1a1a1; stroke:none;" d="M104 193L105 194L104 193z"/>
<path style="fill:#f0f0f0; stroke:none;" d="M107 193L107 196L109 196L109 193L107 193z"/>
<path style="fill:#a1a1a1; stroke:none;" d="M111 193L112 194L111 193M120 193L120 194L124 194L120 193M126 193L127 194L126 193M146 193L146 194L151 194L146 193z"/>
<path style="fill:#bbbbbb; stroke:none;" d="M152 193L153 194L152 193z"/>
<path style="fill:#a1a1a1; stroke:none;" d="M50 194L51 195L50 194M53 194L54 195L53 194z"/>
<path style="fill:#cecece; stroke:none;" d="M56 194L57 195L56 194z"/>
<path style="fill:#a1a1a1; stroke:none;" d="M60 194L61 195L60 194z"/>
<path style="fill:#cecece; stroke:none;" d="M63 194L64 195L63 194M65 194L66 195L65 194z"/>
<path style="fill:#bbbbbb; stroke:none;" d="M68 194L69 195L68 194z"/>
<path style="fill:#a1a1a1; stroke:none;" d="M72 194L73 195L72 194z"/>
<path style="fill:#cecece; stroke:none;" d="M75 194L76 195L75 194M77 194L78 195L77 194z"/>
<path style="fill:#a1a1a1; stroke:none;" d="M80 194L81 195L80 194z"/>
<path style="fill:#cecece; stroke:none;" d="M103 194L104 195L103 194z"/>
<path style="fill:#a1a1a1; stroke:none;" d="M106 194L107 195L106 194M109 194L110 195L109 194z"/>
<path style="fill:#cecece; stroke:none;" d="M126 194L127 195L126 194z"/>
<path style="fill:#a1a1a1; stroke:none;" d="M152 194L147 195L147 196L153 195L152 194z"/>
<path style="fill:#bbbbbb; stroke:none;" d="M47 195L48 196L47 195M50 195L51 196L50 195z"/>
<path style="fill:#cecece; stroke:none;" d="M53 195L54 196L53 195z"/>
<path style="fill:#a1a1a1; stroke:none;" d="M56 195L57 196L56 195z"/>
<path style="fill:#cecece; stroke:none;" d="M60.3333 195.667L60.6667 196.333L60.3333 195.667z"/>
<path style="fill:#a1a1a1; stroke:none;" d="M63.3333 195.667L63.6667 196.333L63.3333 195.667M65 195L66 196L65 195z"/>
<path style="fill:#cecece; stroke:none;" d="M71 195L72 196L71 195z"/>
<path style="fill:#a1a1a1; stroke:none;" d="M74 195L75 196L74 195M78 195L79 196L78 195z"/>
<path style="fill:#cecece; stroke:none;" d="M81 195L82 196L81 195z"/>
<path style="fill:#bbbbbb; stroke:none;" d="M103 195L104 196L103 195z"/>
<path style="fill:#cecece; stroke:none;" d="M106 195L107 196L106 195M109 195L110 196L109 195z"/>
<path style="fill:#a1a1a1; stroke:none;" d="M112 195L113 196L112 195M119 195L119 196L124 196L119 195M127 195L128 196L127 195M145 195L146 196L145 195z"/>
<path style="fill:#bbbbbb; stroke:none;" d="M146 195L147 196L146 195z"/>
<path style="fill:#cecece; stroke:none;" d="M152 195L153 196L152 195z"/>
<path style="fill:#a1a1a1; stroke:none;" d="M47 196L48 197L47 196M50 196L50 197L54 197L50 196M67 196L68 197L67 196z"/>
<path style="fill:#bbbbbb; stroke:none;" d="M71 196L72 197L71 196z"/>
<path style="fill:#a1a1a1; stroke:none;" d="M75 196L75 197L78 197L75 196z"/>
<path style="fill:#bbbbbb; stroke:none;" d="M81 196L82 197L81 196z"/>
<path style="fill:#a1a1a1; stroke:none;" d="M106 196L106 197L110 197L106 196z"/>
<path style="fill:#bbbbbb; stroke:none;" d="M119 196L119 199L120 199L119 196z"/>
<path style="fill:#f0f0f0; stroke:none;" d="M120 196L120 199L125 199L125 196L120 196z"/>
<path style="fill:#a1a1a1; stroke:none;" d="M125 196L126 197L125 196z"/>
<path style="fill:#cecece; stroke:none;" d="M128 196L129 197L128 196z"/>
<path style="fill:#bbbbbb; stroke:none;" d="M145 196L145 199L146 199L145 196z"/>
<path style="fill:#cecece; stroke:none;" d="M46 197L47 198L46 197z"/>
<path style="fill:#bbbbbb; stroke:none;" d="M57 197L58 198L57 197z"/>
<path style="fill:#a1a1a1; stroke:none;" d="M61 197L62 198L61 197M64 197L65 198L64 197z"/>
<path style="fill:#bbbbbb; stroke:none;" d="M67 197L68 198L67 197z"/>
<path style="fill:#cecece; stroke:none;" d="M102 197L103 198L102 197M113 197L114 198L113 197z"/>
<path style="fill:#bbbbbb; stroke:none;" d="M125 197L126 198L125 197M128 197L129 198L128 197z"/>
<path style="fill:#a1a1a1; stroke:none;" d="M46 198L47 199L46 198M49 198L49 199L55 199L49 198z"/>
<path style="fill:#cecece; stroke:none;" d="M61 198L62 199L61 198M70 198L71 199L70 198z"/>
<path style="fill:#a1a1a1; stroke:none;" d="M73 198L73 199L79 199L73 198z"/>
<path style="fill:#cecece; stroke:none;" d="M82 198L83 199L82 198M93 198L94 199L93 198z"/>
<path style="fill:#a1a1a1; stroke:none;" d="M102 198L103 199L102 198M105 198L105 199L111 199L105 198M113 198L114 199L113 198M125 198L126 199L125 198z"/>
<path style="fill:#cecece; stroke:none;" d="M128 198L129 199L128 198z"/>
<path style="fill:#a1a1a1; stroke:none;" d="M55 199L56 200L55 199z"/>
<path style="fill:#cecece; stroke:none;" d="M58 199L59 200L58 199z"/>
<path style="fill:#a1a1a1; stroke:none;" d="M66 199L67 200L66 199M70 199L71 200L70 199z"/>
<path style="fill:#cecece; stroke:none;" d="M73 199L74 200L73 199z"/>
<path style="fill:#bbbbbb; stroke:none;" d="M79 199L80 200L79 199z"/>
<path style="fill:#a1a1a1; stroke:none;" d="M82 199L83 200L82 199M93 199L93 200L100 200L93 199z"/>
<path style="fill:#cecece; stroke:none;" d="M100.667 199.333L101.333 199.667L100.667 199.333z"/>
<path style="fill:#a1a1a1; stroke:none;" d="M104 199L105 200L104 199z"/>
<path style="fill:#cecece; stroke:none;" d="M114 199L115 200L114 199z"/>
<path style="fill:#a1a1a1; stroke:none;" d="M119 199L119 200L125 200L119 199M134 199L134 200L140 200L140 201L132 201L132 202L141 202L134 199z"/>
<path style="fill:#bbbbbb; stroke:none;" d="M140 199L141 200L140 199z"/>
<path style="fill:#a1a1a1; stroke:none;" d="M145 199L145 200L153 200L145 199z"/>
<path style="fill:#cecece; stroke:none;" d="M153 199L153 202L154 202L153 199M45 200L46 201L45 200z"/>
<path style="fill:#a1a1a1; stroke:none;" d="M48 200L46 201L46 202L48 200z"/>
<path style="fill:#cecece; stroke:none;" d="M55 200L56 201L55 200z"/>
<path style="fill:#a1a1a1; stroke:none;" d="M58 200L56 201L56 202L58 200M62 200L62 201L66 202L66 201L62 200z"/>
<path style="fill:#cecece; stroke:none;" d="M66 200L67 201L66 200z"/>
<path style="fill:#bbbbbb; stroke:none;" d="M100.667 200.333L101.333 200.667L100.667 200.333M104 200L105 201L104 200M111 200L112 201L111 200z"/>
<path style="fill:#a1a1a1; stroke:none;" d="M114 200L112 201L112 202L114 200z"/>
<path style="fill:#cecece; stroke:none;" d="M127 200L128 201L127 200z"/>
<path style="fill:#bbbbbb; stroke:none;" d="M45 201L46 202L45 201z"/>
<path style="fill:#cecece; stroke:none;" d="M48 201L49 202L48 201M59 201L60 202L59 201M62 201L63 202L62 201M69 201L70 202L69 201z"/>
<path style="fill:#a1a1a1; stroke:none;" d="M71 201L72 202L71 201z"/>
<path style="fill:#bbbbbb; stroke:none;" d="M72 201L73 202L72 201M80 201L81 202L80 201z"/>
<path style="fill:#a1a1a1; stroke:none;" d="M81 201L82 202L81 201z"/>
<path style="fill:#cecece; stroke:none;" d="M83 201L84 202L83 201z"/>
<path style="fill:#bbbbbb; stroke:none;" d="M87 201L88 202L87 201z"/>
<path style="fill:#cecece; stroke:none;" d="M90 201L91 202L90 201z"/>
<path style="fill:#a1a1a1; stroke:none;" d="M91 201L91 202L100 202L91 201z"/>
<path style="fill:#cecece; stroke:none;" d="M100 201L101 202L100 201z"/>
<path style="fill:#a1a1a1; stroke:none;" d="M101.667 201.333L102.333 201.667L101.667 201.333M118 201L118 202L125 202L118 201z"/>
<path style="fill:#bbbbbb; stroke:none;" d="M125 201L126 202L125 201z"/>
<path style="fill:#cecece; stroke:none;" d="M126 201L127 202L126 201z"/>
<path style="fill:#a1a1a1; stroke:none;" d="M143 201L143 202L152 202L143 201z"/>
</svg>
